<?xml version="1.0" encoding="utf-8"?>
<!-- Generator: Adobe Illustrator 18.1.1, SVG Export Plug-In . SVG Version: 6.00 Build 0)  -->
<svg version="1.1" id="Layer_1" xmlns="http://www.w3.org/2000/svg" xmlns:xlink="http://www.w3.org/1999/xlink" x="0px" y="0px"
	 viewBox="0 0 409.6 360" enable-background="new 0 0 409.6 360" xml:space="preserve">
<linearGradient id="SVGID_1_" gradientUnits="userSpaceOnUse" x1="204.799" y1="363.806" x2="204.799" y2="-1.3309">
	<stop  offset="7.128973e-02" style="stop-color:#79C36A"/>
	<stop  offset="1" style="stop-color:#44B25C"/>
</linearGradient>
<path fill="url(#SVGID_1_)" d="M373.6,96h-84V36c0-19.9-16.2-36-36-36H36C16.1,0,0,16.1,0,36v144c0,19.9,16.1,36,36,36h12v36
	c0,9.6,10.7,15.3,18.7,10l53.3-35.6V276c0,19.9,16.1,36,36,36h118l69,46c7.9,5.3,18.7-0.4,18.7-10v-36h12c19.9,0,36-16.1,36-36V132
	C409.6,112.1,393.4,96,373.6,96L373.6,96z M125.3,194C125.3,194,125.3,194.1,125.3,194L72,229.6V204c0-6.6-5.4-12-12-12H36
	c-6.6,0-12-5.4-12-12V36c0-6.6,5.4-12,12-12h217.6c6.6,0,12,5.4,12,12v144c0,6.6-5.4,12-12,12H132C129.7,192,127.3,192.7,125.3,194
	L125.3,194z M385.6,276c0,6.6-5.4,12-12,12h-24c-6.6,0-12,5.4-12,12v25.6L284.3,290c-2-1.3-4.3-2-6.7-2H156c-6.6,0-12-5.4-12-12v-60
	h109.6c19.8,0,36-16.1,36-36v-60h84c6.6,0,12,5.4,12,12V276z M385.6,276"/>
<linearGradient id="SVGID_2_" gradientUnits="userSpaceOnUse" x1="108" y1="363.806" x2="108" y2="-1.3309">
	<stop  offset="0" style="stop-color:#79C36A"/>
	<stop  offset="1" style="stop-color:#44B25C"/>
</linearGradient>
<path fill="url(#SVGID_2_)" d="M156,120H60c-6.6,0-12,5.4-12,12c0,6.6,5.4,12,12,12h96c6.6,0,12-5.4,12-12
	C168,125.4,162.6,120,156,120L156,120z M156,120"/>
<linearGradient id="SVGID_3_" gradientUnits="userSpaceOnUse" x1="144.801" y1="363.806" x2="144.801" y2="-1.3309">
	<stop  offset="0" style="stop-color:#79C36A"/>
	<stop  offset="1" style="stop-color:#44B25C"/>
</linearGradient>
<path fill="url(#SVGID_3_)" d="M229.6,72H60c-6.6,0-12,5.4-12,12c0,6.6,5.4,12,12,12h169.6c6.6,0,12-5.4,12-12
	C241.6,77.4,236.2,72,229.6,72L229.6,72z M229.6,72"/>
</svg>
