<?xml version="1.0" encoding="utf-8"?>
<!-- Generator: Adobe Illustrator 18.1.1, SVG Export Plug-In . SVG Version: 6.00 Build 0)  -->
<svg version="1.1" id="Layer_2" xmlns="http://www.w3.org/2000/svg" xmlns:xlink="http://www.w3.org/1999/xlink" x="0px" y="0px"
	 viewBox="0 218 612 331.2" enable-background="new 0 218 612 331.2" xml:space="preserve">
<g>
	<path fill="#DBE5F4" d="M0,242.8c0,0,34.8,22.9,21,59.1c0,0,8.4-1.9,14.2,7.9c0,0,11.2,10.1,1.4,22.2c0,0,3.5-2.1,9.6,3.5
		c0,0,13.7,8.6,4.4,21c0,0,13.3-8.6,30.8-1.9c0,0,15.4,7.2,17,21.9c0,0,8.1,1.4,14.2,12.6c6.1,11.2,5.3,31.5-22.6,52.7
		c0,0,15.2,1.1,21.2,14.3c6,13.3-1.9,25.7-4.5,28.5c0,0,7.7-7.5,23.3-1.8c15.6,5.8,18.5,21.2,18.5,21.2s3.5-14.5,16.6-14.3
		c13.1,0.2,15.8,10,15.8,10S178,447,230,426.4s81.6,17.2,81.6,17.2s7.5-4.9,16.6,2.4s6.5,23.3,2.4,33.8c0,0,9.3-20.5,39-19.4
		c29.8,1.1,45.1,21.9,48.8,31.7c0,0-0.2-17.9,20.1-33.1c20.3-15.2,57.8-12.9,83.3,8.9c0,0-8.2-24.2,1.2-42.3
		c9.5-18.2,28-15,32.5-11.8c0,0-9.3-8.5-2.3-19.5c7-11,22.7-4.4,22.7-4.4s-19.1-22.1-14.7-48s29.2-43.6,50.6-43.4v250.8H0V242.8z"/>
	<path fill="#DBE5F4" d="M612,285.7v-35.9c0,0-6.6,9.6-6.6,18.7S612,285.7,612,285.7z"/>
</g>
</svg>
