<?xml version="1.0" encoding="utf-8"?>
<!-- Generator: Adobe Illustrator 18.1.1, SVG Export Plug-In . SVG Version: 6.00 Build 0)  -->
<svg version="1.1" id="Layer_1" xmlns="http://www.w3.org/2000/svg" xmlns:xlink="http://www.w3.org/1999/xlink" x="0px" y="0px"
	 viewBox="0 0 273.1 409.6" enable-background="new 0 0 273.1 409.6" xml:space="preserve">
<g>
	<path fill="#98a6be" d="M136.5,0C70.6,0.1,17.1,53.5,17.1,119.5v76.8c0,4.7,3.8,8.5,8.5,8.5h34.1c4.7,0,8.5-3.8,8.5-8.5v-76.8
		c0-37.7,30.6-68.3,68.3-68.3s68.3,30.6,68.3,68.3v76.8c0,4.7,3.8,8.5,8.5,8.5h34.1c4.7,0,8.5-3.8,8.5-8.5v-76.8
		C255.9,53.5,202.5,0.1,136.5,0L136.5,0z M136.5,0"/>
	<path fill="#607498" d="M247.5,187.7H25.6C11.5,187.7,0,199.2,0,213.3v153.6c0,23.6,19.1,42.7,42.7,42.7h187.7
		c23.6,0,42.7-19.1,42.7-42.7V213.3C273.1,199.2,261.6,187.7,247.5,187.7L247.5,187.7z M247.5,187.7"/>
	<path fill="#98a6be" d="M159.6,298.2c7.1-6.4,11.1-15.5,11.1-25.1c0-18.9-15.3-34.1-34.1-34.1c-18.9,0-34.1,15.3-34.1,34.1
		c0,9.6,4,18.7,11.1,25.1l-10.6,31.9c-1.5,4.5,0.9,9.3,5.4,10.8c0.9,0.3,1.8,0.4,2.7,0.4h51.2c4.7,0,8.5-3.8,8.5-8.5
		c0-0.9-0.1-1.8-0.4-2.7L159.6,298.2z M159.6,298.2"/>
</g>
</svg>
