<?xml version="1.0" encoding="utf-8"?>
<!-- Generator: Adobe Illustrator 22.0.1, SVG Export Plug-In . SVG Version: 6.00 Build 0)  -->
<svg version="1.1" id="Capa_1" xmlns="http://www.w3.org/2000/svg" xmlns:xlink="http://www.w3.org/1999/xlink" x="0px" y="0px"
	 viewBox="0 0 638 155.5" style="enable-background:new 0 0 638 155.5;" xml:space="preserve">
<style type="text/css">
	.st0{fill:#FFC600;}
	.st1{fill:#FFFFFF;}
</style>
<g>
	<g>
		<g>
			<path class="st0" d="M77.8,0C34.9,0,0,34.8,0,77.7c0,42.9,34.9,77.8,77.8,77.8s77.8-34.9,77.8-77.8C155.5,34.9,120.7,0,77.8,0z
				 M39.3,50.4l11.3-19.6c0.6-1,1.6-1.6,2.8-1.6h22.7c1.1,0,2.2,0.6,2.8,1.6l11.3,19.4c0.6,1,0.6,2.2,0,3.2L79,73
				c-0.6,1-1.6,1.6-2.8,1.6H53.5c-1.1,0-2.2-0.6-2.8-1.6L39.4,53.8C38.8,52.6,38.8,51.4,39.3,50.4z M90.3,105.3L79,124.7
				c-0.6,1-1.6,1.6-2.8,1.6H53.5c-1.1,0-2.2-0.6-2.8-1.6l-11.3-19.2c-0.6-1-0.6-2.2,0-3.2l11.2-19.7c0.6-1,1.6-1.6,2.8-1.6h22.7
				c1.1,0,2.2,0.6,2.8,1.6L90.2,102C90.9,103.1,90.9,104.3,90.3,105.3z M124.3,98.8c-0.6,1-1.6,1.6-2.8,1.6H98.8
				c-1.1,0-2.2-0.6-2.8-1.6L84.7,79.6c-0.6-1-0.6-2.2,0-3.2L96,56.7c0.6-1,1.6-1.6,2.8-1.6h22.7c1.1,0,2.2,0.6,2.8,1.6l11.3,19.4
				c0.6,1,0.6,2.2,0,3.2L124.3,98.8z"/>
		</g>
	</g>
</g>
<g>
	<path class="st1" d="M269.9,36.2v80.7h-8.1V80.6h-48.4v36.3h-8.1V36.2h8.1v36.3h48.4V36.2H269.9z"/>
	<path class="st1" d="M342.1,116.9h-5.9l-1.5-7.4v-1.2c-4.8,6-12.2,9.9-20.5,9.9c-14.4,0-26.3-11.9-26.3-26.3V59.2h7.4v32
		c0,10.8,8.9,19.7,19.7,19.7c10.8,0,19.7-8.9,19.7-19.7v-32h7.4V116.9z"/>
	<path class="st1" d="M365.3,115.9c-4-1.6-7.7-3.9-11.1-7l5.1-5.4c5.4,5,11.9,7.5,19.1,7.5c4.7,0,8.7-1.2,11.4-3.3
		c2.3-1.8,3.6-4.3,3.6-7v-0.1c0-2.8-0.8-4.4-2.7-5.9c-2.4-1.8-6.8-3.5-13.3-4.7c-7.5-1.4-12.2-3.1-15.3-5.4
		c-3.6-2.7-5.3-6.1-5.3-10.7v-0.1c0-4.3,2.1-8.3,5.8-11.3c3.6-2.8,8.5-4.4,13.8-4.4c7,0,13.7,2.2,19.8,6.6l-4.4,6
		c-4.7-3.5-9.9-5.2-15.5-5.2c-7.7,0-12.2,4.3-12.2,8.3v0.1c0,2.3,0.6,3.6,2.2,4.7c2.3,1.6,6.3,3,12.5,4.2c7.7,1.6,12.9,3.6,16.4,6.1
		c3.7,2.9,5.5,6.7,5.5,11.8v0.1c0,5.1-2.3,9.6-6.5,12.9c-4,3.1-9.6,4.8-15.9,4.8C373.8,118.3,369.3,117.5,365.3,115.9z"/>
	<path class="st1" d="M438.2,110.9v6h-7.7c-8.3-3.1-14.2-11.1-14.2-20.5V66.6h-7.4v-7.4h7.4V43.7h7.4v15.6h12.9v7.4h-12.9v29.8
		C423.7,104.3,430.1,110.9,438.2,110.9z"/>
	<path class="st1" d="M510.2,88.1c0,16.6-13.3,30.2-29.4,30.2c-9.7,0-18.2-4.8-23.6-12.3v3.6l-1.5,7.4h-5.9V36.2h7.4v34
		c5.4-7.5,14-12.3,23.6-12.3C496.9,57.8,510.2,71.5,510.2,88.1z M502.8,88.1c0-12.6-10.3-22.8-22.8-22.8s-22.8,10.3-22.8,22.8
		c0,12.6,10.3,22.8,22.8,22.8S502.8,100.6,502.8,88.1z"/>
	<path class="st1" d="M573.7,88.1v1.2h-46c0.6,12.1,10.6,21.7,22.7,21.7c5.9,0,11.2-2.2,15.2-5.9l5.3,5.3c-5.7,5.1-12.8,8-20.5,8
		c-8,0-15.6-3.1-21.3-8.9c-5.7-5.8-8.9-13.3-8.9-21.3c0-16.6,12.1-30.2,26.8-30.2C561.7,57.8,573.7,71.5,573.7,88.1z M528.4,81.8
		h37.3c-2.3-9.6-9.8-16.6-18.7-16.6C538.2,65.2,530.7,72.3,528.4,81.8z"/>
	<path class="st1" d="M635.5,88.1v1.2h-46c0.6,12.1,10.6,21.7,22.7,21.7c5.9,0,11.2-2.2,15.2-5.9l5.3,5.3c-5.7,5.1-12.8,8-20.5,8
		c-8,0-15.6-3.1-21.3-8.9c-5.7-5.8-8.9-13.3-8.9-21.3c0-16.6,12.1-30.2,26.8-30.2C623.5,57.8,635.5,71.5,635.5,88.1z M590.2,81.8
		h37.3c-2.3-9.6-9.8-16.6-18.7-16.6C600,65.2,592.5,72.3,590.2,81.8z"/>
</g>
</svg>
