<?xml version="1.0" encoding="iso-8859-1"?>
<!-- Generator: Adobe Illustrator 19.0.0, SVG Export Plug-In . SVG Version: 6.00 Build 0)  -->
<svg xmlns="http://www.w3.org/2000/svg" xmlns:xlink="http://www.w3.org/1999/xlink" version="1.1" id="Capa_1" x="0px" y="0px" viewBox="0 0 512 512" style="enable-background:new 0 0 512 512;" xml:space="preserve">
<path style="fill:#303C42;" d="M512,320v-42.667c0-23.531-19.146-42.667-42.667-42.667h-85.499L383.667,224  c0-30.118-18.021-55.982-43.768-67.776C332.637,92.021,278.285,42.667,213,42.667c-46.376,0-87.992,24.74-110.801,64.75  c-2.122-0.142-4.229-0.417-6.366-0.417C43,107,0,149.99,0,202.833s43,95.833,95.833,95.833H128V320c0,12.805,5.786,24.174,14.746,32  c-8.96,7.826-14.746,19.195-14.746,32v42.667c0,23.531,19.146,42.667,42.667,42.667h298.667c23.521,0,42.667-19.135,42.667-42.667  V384c0-12.805-5.786-24.174-14.746-32C506.214,344.174,512,332.805,512,320z"/>
<g>
	<path style="fill:#E6E6E6;" d="M95.833,277.333c-41.083,0-74.5-33.417-74.5-74.5s33.417-74.5,74.5-74.5   c13.083,0,25.938,3.427,37.167,9.917c5.104,2.938,11.646,1.219,14.563-3.906c2.958-5.104,1.208-11.625-3.896-14.573   c-6.078-3.508-12.573-6.152-19.243-8.236C144.077,81.938,176.859,64,213,64c51.445,0,94.464,36.908,104.126,86.155   c-2.704-0.298-5.344-0.822-8.126-0.822c-5.896,0-10.667,4.771-10.667,10.667c0,5.896,4.771,10.667,10.667,10.667   c29.417,0,53.333,23.927,53.333,53.5l0.164,10.5H170.667c-23.521,0-42.667,19.135-42.667,42.667H95.833z"/>
	<path style="fill:#E6E6E6;" d="M490.667,384v42.667c0,11.76-9.563,21.333-21.333,21.333H170.667   c-11.771,0-21.333-9.573-21.333-21.333V384c0-11.76,9.563-21.333,21.333-21.333h298.667   C481.104,362.667,490.667,372.24,490.667,384z"/>
	<path style="fill:#E6E6E6;" d="M170.667,341.333c-11.771,0-21.333-9.573-21.333-21.333v-42.667c0-11.76,9.563-21.333,21.333-21.333   h298.667c11.771,0,21.333,9.573,21.333,21.333V320c0,11.76-9.563,21.333-21.333,21.333H170.667z"/>
</g>
<path style="opacity:0.2;fill:#FFFFFF;enable-background:new    ;" d="M170.667,320v-42.667c0-11.76,8.367-21.333,18.667-21.333  h-18.667c-11.771,0-21.333,9.573-21.333,21.333V320c0,11.76,9.563,21.333,21.333,21.333h18.667  C179.034,341.333,170.667,331.76,170.667,320z"/>
<path style="opacity:0.1;enable-background:new    ;" d="M469.333,256h-18.667c10.299,0,18.667,9.573,18.667,21.333V320  c0,11.76-8.367,21.333-18.667,21.333h18.667c11.771,0,21.333-9.573,21.333-21.333v-42.667C490.667,265.573,481.104,256,469.333,256z  "/>
<g>
	<path style="fill:#303C42;" d="M224,277.333c-5.896,0-10.667,4.771-10.667,10.667v21.333c0,5.896,4.771,10.667,10.667,10.667   c5.896,0,10.667-4.771,10.667-10.667V288C234.667,282.104,229.896,277.333,224,277.333z"/>
	<path style="fill:#303C42;" d="M266.667,277.333c-5.896,0-10.667,4.771-10.667,10.667v21.333c0,5.896,4.771,10.667,10.667,10.667   c5.896,0,10.667-4.771,10.667-10.667V288C277.333,282.104,272.563,277.333,266.667,277.333z"/>
	<path style="fill:#303C42;" d="M448,277.333c-11.771,0-21.333,9.573-21.333,21.333c0,11.76,9.563,21.333,21.333,21.333   c11.771,0,21.333-9.573,21.333-21.333C469.333,286.906,459.771,277.333,448,277.333z"/>
	<path style="fill:#303C42;" d="M384,277.333c-11.771,0-21.333,9.573-21.333,21.333c0,11.76,9.563,21.333,21.333,21.333   c11.771,0,21.333-9.573,21.333-21.333C405.333,286.906,395.771,277.333,384,277.333z"/>
	<path style="fill:#303C42;" d="M224,426.667c5.896,0,10.667-4.771,10.667-10.667v-21.333c0-5.896-4.771-10.667-10.667-10.667   c-5.896,0-10.667,4.771-10.667,10.667V416C213.333,421.896,218.104,426.667,224,426.667z"/>
	<path style="fill:#303C42;" d="M266.667,426.667c5.896,0,10.667-4.771,10.667-10.667v-21.333c0-5.896-4.771-10.667-10.667-10.667   c-5.896,0-10.667,4.771-10.667,10.667V416C256,421.896,260.771,426.667,266.667,426.667z"/>
	<path style="fill:#303C42;" d="M448,426.667c11.771,0,21.333-9.573,21.333-21.333S459.771,384,448,384   c-11.771,0-21.333,9.573-21.333,21.333S436.229,426.667,448,426.667z"/>
	<path style="fill:#303C42;" d="M384,426.667c11.771,0,21.333-9.573,21.333-21.333S395.771,384,384,384   c-11.771,0-21.333,9.573-21.333,21.333S372.229,426.667,384,426.667z"/>
</g>
<path style="opacity:0.2;fill:#FFFFFF;enable-background:new    ;" d="M170.667,426.667V384c0-11.76,8.367-21.333,18.667-21.333  h-18.667c-11.771,0-21.333,9.573-21.333,21.333v42.667c0,11.76,9.563,21.333,21.333,21.333h18.667  C179.034,448,170.667,438.427,170.667,426.667z"/>
<path style="opacity:0.1;enable-background:new    ;" d="M469.333,362.667h-18.667c10.299,0,18.667,9.573,18.667,21.333v42.667  c0,11.76-8.367,21.333-18.667,21.333h18.667c11.771,0,21.333-9.573,21.333-21.333V384  C490.667,372.24,481.104,362.667,469.333,362.667z"/>
<g>
	<path style="fill:#303C42;" d="M181.333,277.333c-5.896,0-10.667,4.771-10.667,10.667v21.333c0,5.896,4.771,10.667,10.667,10.667   c5.896,0,10.667-4.771,10.667-10.667V288C192,282.104,187.229,277.333,181.333,277.333z"/>
	<path style="fill:#303C42;" d="M170.667,416c0,5.896,4.771,10.667,10.667,10.667c5.896,0,10.667-4.771,10.667-10.667v-21.333   c0-5.896-4.771-10.667-10.667-10.667c-5.896,0-10.667,4.771-10.667,10.667V416z"/>
</g>
<linearGradient id="SVGID_1_" gradientUnits="userSpaceOnUse" x1="-46.3537" y1="638.7212" x2="-22.0714" y2="627.3955" gradientTransform="matrix(21.3333 0 0 -21.3333 996.3334 13791.667)">
	<stop offset="0" style="stop-color:#FFFFFF;stop-opacity:0.2"/>
	<stop offset="1" style="stop-color:#FFFFFF;stop-opacity:0"/>
</linearGradient>
<path style="fill:url(#SVGID_1_);" d="M512,320v-42.667c0-23.531-19.146-42.667-42.667-42.667h-85.499L383.667,224  c0-30.118-18.021-55.982-43.768-67.776C332.637,92.021,278.285,42.667,213,42.667c-46.376,0-87.992,24.74-110.801,64.75  c-2.122-0.142-4.229-0.417-6.366-0.417C43,107,0,149.99,0,202.833s43,95.833,95.833,95.833H128V320c0,12.805,5.786,24.174,14.746,32  c-8.96,7.826-14.746,19.195-14.746,32v42.667c0,23.531,19.146,42.667,42.667,42.667h298.667c23.521,0,42.667-19.135,42.667-42.667  V384c0-12.805-5.786-24.174-14.746-32C506.214,344.174,512,332.805,512,320z"/>
<g>
</g>
<g>
</g>
<g>
</g>
<g>
</g>
<g>
</g>
<g>
</g>
<g>
</g>
<g>
</g>
<g>
</g>
<g>
</g>
<g>
</g>
<g>
</g>
<g>
</g>
<g>
</g>
<g>
</g>
</svg>
