<?xml version="1.0" encoding="iso-8859-1"?>
<!-- Generator: Adobe Illustrator 19.0.0, SVG Export Plug-In . SVG Version: 6.00 Build 0)  -->
<svg xmlns="http://www.w3.org/2000/svg" xmlns:xlink="http://www.w3.org/1999/xlink" version="1.1" id="Capa_1" x="0px" y="0px" viewBox="0 0 512 512" style="enable-background:new 0 0 512 512;" xml:space="preserve">
<path style="fill:#303C42;" d="M437.333,469.333H288v-10.667c0-5.896-4.771-10.667-10.667-10.667h-10.667v-21.874  c112.658-5.612,202.667-98.758,202.667-212.793C469.333,95.698,373.625,0,256,0S42.667,95.698,42.667,213.333  c0,114.035,90.009,207.181,202.667,212.793V448h-10.667c-5.896,0-10.667,4.771-10.667,10.667v10.667H74.667  C68.771,469.333,64,474.104,64,480c0,5.896,4.771,10.667,10.667,10.667H224v10.667c0,5.896,4.771,10.667,10.667,10.667h42.667  c5.896,0,10.667-4.771,10.667-10.667v-10.667h149.333c5.896,0,10.667-4.771,10.667-10.667  C448,474.104,443.229,469.333,437.333,469.333z"/>
<g>
	<path style="fill:#BBDEFB;" d="M191.885,309.333h128.229c-14.074,59.254-40.023,96-64.115,96S205.96,368.587,191.885,309.333z"/>
	<path style="fill:#BBDEFB;" d="M181.333,213.333c0-27.082,2.303-52.125,6.217-74.667h136.898   c3.914,22.542,6.217,47.585,6.217,74.667s-2.303,52.125-6.217,74.667H187.551C183.637,265.458,181.333,240.415,181.333,213.333z"/>
	<path style="fill:#BBDEFB;" d="M256,21.333c24.091,0,50.04,36.746,64.115,96H191.885C205.96,58.079,231.909,21.333,256,21.333z"/>
	<path style="fill:#BBDEFB;" d="M303.772,399.074c16.499-20.651,29.772-51.831,38.191-89.741h80.059   C396.513,353.272,354.143,386.103,303.772,399.074z"/>
	<path style="fill:#BBDEFB;" d="M432.887,288h-86.84c3.79-23.174,5.953-48.228,5.953-74.667c0-26.438-2.163-51.492-5.953-74.667   h86.84C442.617,161.63,448,186.865,448,213.333S442.617,265.036,432.887,288z"/>
	<path style="fill:#BBDEFB;" d="M422.022,117.333h-80.059c-8.419-37.911-21.693-69.09-38.191-89.741   C354.143,40.564,396.513,73.395,422.022,117.333z"/>
	<path style="fill:#BBDEFB;" d="M208.228,27.592c-16.499,20.651-29.772,51.829-38.191,89.741H89.978   C115.487,73.395,157.857,40.564,208.228,27.592z"/>
	<path style="fill:#BBDEFB;" d="M79.115,138.667h86.839c-3.79,23.174-5.953,48.229-5.953,74.667c0,26.439,2.163,51.492,5.953,74.667   H79.115C69.384,265.036,64,239.802,64,213.333S69.384,161.63,79.115,138.667z"/>
	<path style="fill:#BBDEFB;" d="M89.978,309.333h80.059c8.419,37.91,21.693,69.09,38.191,89.741   C157.857,386.103,115.487,353.272,89.978,309.333z"/>
</g>
<rect x="245.333" y="469.333" style="fill:#FF6F00;" width="21.333" height="21.333"/>
<path style="opacity:0.1;enable-background:new    ;" d="M213.333,352c-2.645,0-5.216-0.29-7.835-0.396  c14.245,33.853,32.85,53.729,50.501,53.729c22.344,0,46.159-31.875,60.743-83.73C286.876,340.757,251.449,352,213.333,352z   M303.772,399.074c50.371-12.971,92.741-45.802,118.25-89.741h-80.059C333.544,347.243,320.271,378.423,303.772,399.074z   M432.887,138.667h-28.805c0.776,7.012,1.251,14.115,1.251,21.333c0,49.245-18.698,94.014-49.18,128h76.733  c9.73-22.964,15.113-48.198,15.113-74.667S442.617,161.63,432.887,138.667z M422.022,117.333  c-10.427-17.961-23.793-33.927-39.249-47.578c7.9,14.802,13.822,30.785,17.638,47.578H422.022z M92.777,309.333h-2.799  c25.509,43.939,67.879,76.77,118.25,89.741c-10.202-12.768-18.971-29.945-26.322-49.866C148.509,343.697,118,329.721,92.777,309.333  z"/>
<linearGradient id="SVGID_1_" gradientUnits="userSpaceOnUse" x1="-44.9113" y1="638.2542" x2="-23.626" y2="628.3264" gradientTransform="matrix(21.3333 0 0 -21.3333 996.3334 13791.667)">
	<stop offset="0" style="stop-color:#FFFFFF;stop-opacity:0.2"/>
	<stop offset="1" style="stop-color:#FFFFFF;stop-opacity:0"/>
</linearGradient>
<path style="fill:url(#SVGID_1_);" d="M437.333,469.333H288v-10.667c0-5.896-4.771-10.667-10.667-10.667h-10.667v-21.874  c112.658-5.612,202.667-98.758,202.667-212.793C469.333,95.698,373.625,0,256,0S42.667,95.698,42.667,213.333  c0,114.035,90.009,207.181,202.667,212.793V448h-10.667c-5.896,0-10.667,4.771-10.667,10.667v10.667H74.667  C68.771,469.333,64,474.104,64,480c0,5.896,4.771,10.667,10.667,10.667H224v10.667c0,5.896,4.771,10.667,10.667,10.667h42.667  c5.896,0,10.667-4.771,10.667-10.667v-10.667h149.333c5.896,0,10.667-4.771,10.667-10.667  C448,474.104,443.229,469.333,437.333,469.333z"/>
<g>
</g>
<g>
</g>
<g>
</g>
<g>
</g>
<g>
</g>
<g>
</g>
<g>
</g>
<g>
</g>
<g>
</g>
<g>
</g>
<g>
</g>
<g>
</g>
<g>
</g>
<g>
</g>
<g>
</g>
</svg>
