<?xml version="1.0" encoding="iso-8859-1"?>
<!-- Generator: Adobe Illustrator 19.0.0, SVG Export Plug-In . SVG Version: 6.00 Build 0)  -->
<svg xmlns="http://www.w3.org/2000/svg" xmlns:xlink="http://www.w3.org/1999/xlink" version="1.1" id="Capa_1" x="0px" y="0px" viewBox="0 0 469.333 469.333" style="enable-background:new 0 0 469.333 469.333;" xml:space="preserve">
<path style="fill:#303C42;" d="M469.333,128V42.667C469.333,19.135,450.198,0,426.667,0h-384C19.135,0,0,19.135,0,42.667V128  c0,12.805,5.784,24.174,14.741,32C5.784,167.826,0,179.195,0,192v85.333c0,12.805,5.784,24.174,14.741,32  C5.784,317.159,0,328.529,0,341.333v85.333c0,23.531,19.135,42.667,42.667,42.667h384c23.531,0,42.667-19.135,42.667-42.667v-85.333  c0-12.805-5.784-24.174-14.741-32c8.957-7.826,14.741-19.195,14.741-32V192c0-12.805-5.784-24.174-14.741-32  C463.549,152.174,469.333,140.805,469.333,128z"/>
<g>
	<path style="fill:#E6E6E6;" d="M448,341.333v85.333c0,11.76-9.573,21.333-21.333,21.333h-384c-11.76,0-21.333-9.573-21.333-21.333   v-85.333c0-11.76,9.573-21.333,21.333-21.333h384C438.427,320,448,329.573,448,341.333z"/>
	<path style="fill:#E6E6E6;" d="M448,192v85.333c0,11.76-9.573,21.333-21.333,21.333h-384c-11.76,0-21.333-9.573-21.333-21.333V192   c0-11.76,9.573-21.333,21.333-21.333h384C438.427,170.667,448,180.24,448,192z"/>
	<path style="fill:#E6E6E6;" d="M42.667,149.333c-11.76,0-21.333-9.573-21.333-21.333V42.667c0-11.76,9.573-21.333,21.333-21.333   h384c11.76,0,21.333,9.573,21.333,21.333V128c0,11.76-9.573,21.333-21.333,21.333H42.667z"/>
</g>
<path style="opacity:0.2;fill:#FFFFFF;enable-background:new    ;" d="M48,426.667v-85.333C48,329.573,56.376,320,66.667,320h-24  c-11.76,0-21.333,9.573-21.333,21.333v85.333c0,11.76,9.573,21.333,21.333,21.333h24C56.376,448,48,438.427,48,426.667z"/>
<path style="opacity:0.1;enable-background:new    ;" d="M426.667,320h-24c10.29,0,18.667,9.573,18.667,21.333v85.333  c0,11.76-8.376,21.333-18.667,21.333h24c11.76,0,21.333-9.573,21.333-21.333v-85.333C448,329.573,438.427,320,426.667,320z"/>
<path style="opacity:0.1;enable-background:new    ;" d="M426.667,170.667h-24c10.29,0,18.667,9.573,18.667,21.333v85.333  c0,11.76-8.376,21.333-18.667,21.333h24c11.76,0,21.333-9.573,21.333-21.333V192C448,180.24,438.427,170.667,426.667,170.667z"/>
<g>
	<path style="opacity:0.2;fill:#FFFFFF;enable-background:new    ;" d="M48,277.333V192c0-11.76,8.376-21.333,18.667-21.333h-24   c-11.76,0-21.333,9.573-21.333,21.333v85.333c0,11.76,9.573,21.333,21.333,21.333h24C56.376,298.667,48,289.094,48,277.333z"/>
	<path style="opacity:0.2;fill:#FFFFFF;enable-background:new    ;" d="M48,128V42.667c0-11.76,8.376-21.333,18.667-21.333h-24   c-11.76,0-21.333,9.573-21.333,21.333V128c0,11.76,9.573,21.333,21.333,21.333h24C56.376,149.333,48,139.76,48,128z"/>
</g>
<path style="opacity:0.1;enable-background:new    ;" d="M426.667,21.333h-24c10.29,0,18.667,9.573,18.667,21.333V128  c0,11.76-8.376,21.333-18.667,21.333h24c11.76,0,21.333-9.573,21.333-21.333V42.667C448,30.906,438.427,21.333,426.667,21.333z"/>
<g>
	<path style="fill:#303C42;" d="M74.667,42.667C68.771,42.667,64,47.438,64,53.333v64C64,123.229,68.771,128,74.667,128   c5.896,0,10.667-4.771,10.667-10.667v-64C85.333,47.438,80.563,42.667,74.667,42.667z"/>
	<path style="fill:#303C42;" d="M117.333,42.667c-5.896,0-10.667,4.771-10.667,10.667v64c0,5.896,4.771,10.667,10.667,10.667   S128,123.229,128,117.333v-64C128,47.438,123.229,42.667,117.333,42.667z"/>
	<path style="fill:#303C42;" d="M160,42.667c-5.896,0-10.667,4.771-10.667,10.667v64c0,5.896,4.771,10.667,10.667,10.667   c5.896,0,10.667-4.771,10.667-10.667v-64C170.667,47.438,165.896,42.667,160,42.667z"/>
	<circle style="fill:#303C42;" cx="384" cy="85.333" r="21.333"/>
	<circle style="fill:#303C42;" cx="320" cy="85.333" r="21.333"/>
	<path style="fill:#303C42;" d="M74.667,277.333c5.896,0,10.667-4.771,10.667-10.667v-64c0-5.896-4.771-10.667-10.667-10.667   C68.771,192,64,196.771,64,202.667v64C64,272.563,68.771,277.333,74.667,277.333z"/>
	<path style="fill:#303C42;" d="M117.333,277.333c5.896,0,10.667-4.771,10.667-10.667v-64c0-5.896-4.771-10.667-10.667-10.667   s-10.667,4.771-10.667,10.667v64C106.667,272.563,111.438,277.333,117.333,277.333z"/>
	<path style="fill:#303C42;" d="M160,277.333c5.896,0,10.667-4.771,10.667-10.667v-64c0-5.896-4.771-10.667-10.667-10.667   c-5.896,0-10.667,4.771-10.667,10.667v64C149.333,272.563,154.104,277.333,160,277.333z"/>
	<circle style="fill:#303C42;" cx="384" cy="234.667" r="21.333"/>
	<circle style="fill:#303C42;" cx="320" cy="234.667" r="21.333"/>
	<path style="fill:#303C42;" d="M74.667,426.667c5.896,0,10.667-4.771,10.667-10.667v-64c0-5.896-4.771-10.667-10.667-10.667   C68.771,341.333,64,346.104,64,352v64C64,421.896,68.771,426.667,74.667,426.667z"/>
	<path style="fill:#303C42;" d="M117.333,426.667c5.896,0,10.667-4.771,10.667-10.667v-64c0-5.896-4.771-10.667-10.667-10.667   s-10.667,4.771-10.667,10.667v64C106.667,421.896,111.438,426.667,117.333,426.667z"/>
	<path style="fill:#303C42;" d="M160,426.667c5.896,0,10.667-4.771,10.667-10.667v-64c0-5.896-4.771-10.667-10.667-10.667   c-5.896,0-10.667,4.771-10.667,10.667v64C149.333,421.896,154.104,426.667,160,426.667z"/>
	<circle style="fill:#303C42;" cx="384" cy="384" r="21.333"/>
	<circle style="fill:#303C42;" cx="320" cy="384" r="21.333"/>
</g>
<linearGradient id="SVGID_1_" gradientUnits="userSpaceOnUse" x1="-68.6888" y1="619.0512" x2="-43.3842" y2="607.2509" gradientTransform="matrix(21.3333 0 0 -21.3333 1430.1112 13315.2227)">
	<stop offset="0" style="stop-color:#FFFFFF;stop-opacity:0.2"/>
	<stop offset="1" style="stop-color:#FFFFFF;stop-opacity:0"/>
</linearGradient>
<path style="fill:url(#SVGID_1_);" d="M469.333,128V42.667C469.333,19.135,450.198,0,426.667,0h-384C19.135,0,0,19.135,0,42.667V128  c0,12.805,5.784,24.174,14.741,32C5.784,167.826,0,179.195,0,192v85.333c0,12.805,5.784,24.174,14.741,32  C5.784,317.159,0,328.529,0,341.333v85.333c0,23.531,19.135,42.667,42.667,42.667h384c23.531,0,42.667-19.135,42.667-42.667v-85.333  c0-12.805-5.784-24.174-14.741-32c8.957-7.826,14.741-19.195,14.741-32V192c0-12.805-5.784-24.174-14.741-32  C463.549,152.174,469.333,140.805,469.333,128z"/>
<g>
</g>
<g>
</g>
<g>
</g>
<g>
</g>
<g>
</g>
<g>
</g>
<g>
</g>
<g>
</g>
<g>
</g>
<g>
</g>
<g>
</g>
<g>
</g>
<g>
</g>
<g>
</g>
<g>
</g>
</svg>
