<?xml version="1.0" encoding="iso-8859-1"?>
<!-- Generator: Adobe Illustrator 19.0.0, SVG Export Plug-In . SVG Version: 6.00 Build 0)  -->
<svg xmlns="http://www.w3.org/2000/svg" xmlns:xlink="http://www.w3.org/1999/xlink" version="1.1" id="Capa_1" x="0px" y="0px" viewBox="0 0 469.333 469.333" style="enable-background:new 0 0 469.333 469.333;" xml:space="preserve">
<path style="fill:#303C42;" d="M437.333,170.667H384v-21.333c0-10.348-3.85-19.717-9.999-27.112l0.165-0.138L287.625,19.042  C277.479,6.938,262.583,0,246.792,0H137.208c-15.792,0-30.688,6.938-40.833,19.031L9.833,122.083l0.165,0.138  C3.85,129.616,0,138.986,0,149.333V192c0,12.805,5.786,24.174,14.746,32C5.786,231.826,0,243.195,0,256v42.667  c0,23.531,19.146,42.667,42.667,42.667h106.667v32c0,17.646,14.354,32,32,32h84.59C263.43,425.948,254.505,448,245.333,448  c-5.896,0-10.667,4.771-10.667,10.667c0,5.896,4.771,10.667,10.667,10.667h128c5.896,0,10.667-4.771,10.667-10.667  c0-5.896-4.771-10.667-10.667-10.667c-9.172,0-18.096-22.052-20.59-42.667h84.59c17.646,0,32-14.354,32-32V202.667  C469.333,185.021,454.979,170.667,437.333,170.667z"/>
<g>
	<path id="SVGCleanerId_0" style="fill:#5C6671;" d="M448,202.667v138.667H170.667V202.667c0-5.885,4.792-10.667,10.667-10.667h256   C443.208,192,448,196.781,448,202.667z"/>
</g>
<g>
	
		<linearGradient id="SVGCleanerId_0_3_" gradientUnits="userSpaceOnUse" x1="-59.1014" y1="614.6227" x2="-45.892" y2="608.4607" gradientTransform="matrix(21.3333 0 0 -21.3333 1430.1112 13315.2227)">
		<stop offset="0" style="stop-color:#FFFFFF;stop-opacity:0.2"/>
		<stop offset="1" style="stop-color:#FFFFFF;stop-opacity:0"/>
	</linearGradient>
	<path id="SVGCleanerId_0_1_" style="fill:url(#SVGCleanerId_0_3_);" d="M448,202.667v138.667H170.667V202.667   c0-5.885,4.792-10.667,10.667-10.667h256C443.208,192,448,196.781,448,202.667z"/>
</g>
<g>
	
		<linearGradient id="SVGCleanerId_0_4_" gradientUnits="userSpaceOnUse" x1="-57.4635" y1="616.4309" x2="-47.6094" y2="606.5779" gradientTransform="matrix(21.3333 0 0 -21.3333 1430.1112 13315.2227)">
		<stop offset="0" style="stop-color:#FFFFFF;stop-opacity:0.2"/>
		<stop offset="1" style="stop-color:#FFFFFF;stop-opacity:0"/>
	</linearGradient>
	<path id="SVGCleanerId_0_2_" style="fill:url(#SVGCleanerId_0_4_);" d="M448,202.667v138.667H170.667V202.667   c0-5.885,4.792-10.667,10.667-10.667h256C443.208,192,448,196.781,448,202.667z"/>
</g>
<path style="fill:#F2F2F2;" d="M112.708,32.75c6.104-7.25,15.021-11.417,24.5-11.417h109.583c9.479,0,18.396,4.167,24.5,11.427  l62.065,73.906H50.641L112.708,32.75z"/>
<g>
	<path style="fill:#E6E6E6;" d="M21.333,192v-42.667c0-11.76,9.563-21.333,21.333-21.333h298.667   c11.771,0,21.333,9.573,21.333,21.333v21.333h-21.333c0-11.76-9.563-21.333-21.333-21.333c-11.771,0-21.333,9.573-21.333,21.333   h-21.333c0-11.76-9.563-21.333-21.333-21.333c-11.771,0-21.333,9.573-21.333,21.333h-53.333c-17.646,0-32,14.354-32,32v10.667   H42.667C30.896,213.333,21.333,203.76,21.333,192z"/>
	<path style="fill:#E6E6E6;" d="M42.667,320c-11.771,0-21.333-9.573-21.333-21.333V256c0-11.76,9.563-21.333,21.333-21.333h106.667   v32c0-5.896-4.771-10.667-10.667-10.667S128,260.771,128,266.667V288c0,5.896,4.771,10.667,10.667,10.667   s10.667-4.771,10.667-10.667v32H42.667z"/>
</g>
<g>
	<path style="fill:#F2F2F2;" d="M343.521,448h-68.375c7.138-13.021,10.855-29.531,12.208-42.667h43.96   C332.667,418.469,336.383,434.979,343.521,448z"/>
	<path style="fill:#F2F2F2;" d="M437.333,384h-256c-5.875,0-10.667-4.781-10.667-10.667v-10.667H448v10.667   C448,379.219,443.208,384,437.333,384z"/>
</g>
<g>
	<path style="fill:#303C42;" d="M53.333,149.333c-5.896,0-10.667,4.771-10.667,10.667v21.333c0,5.896,4.771,10.667,10.667,10.667   S64,187.229,64,181.333V160C64,154.104,59.229,149.333,53.333,149.333z"/>
	<path style="fill:#303C42;" d="M96,149.333c-5.896,0-10.667,4.771-10.667,10.667v21.333C85.333,187.229,90.104,192,96,192   c5.896,0,10.667-4.771,10.667-10.667V160C106.667,154.104,101.896,149.333,96,149.333z"/>
	<path style="fill:#303C42;" d="M149.333,181.333V160c0-5.896-4.771-10.667-10.667-10.667S128,154.104,128,160v21.333   c0,5.896,4.771,10.667,10.667,10.667S149.333,187.229,149.333,181.333z"/>
	<path style="fill:#303C42;" d="M53.333,256c-5.896,0-10.667,4.771-10.667,10.667V288c0,5.896,4.771,10.667,10.667,10.667   S64,293.896,64,288v-21.333C64,260.771,59.229,256,53.333,256z"/>
	<path style="fill:#303C42;" d="M96,256c-5.896,0-10.667,4.771-10.667,10.667V288c0,5.896,4.771,10.667,10.667,10.667   c5.896,0,10.667-4.771,10.667-10.667v-21.333C106.667,260.771,101.896,256,96,256z"/>
</g>
<linearGradient id="SVGID_1_" gradientUnits="userSpaceOnUse" x1="-53.0516" y1="605.6662" x2="-50.7352" y2="603.3498" gradientTransform="matrix(21.3333 0 0 -21.3333 1430.1112 13315.2227)">
	<stop offset="0" style="stop-color:#000000;stop-opacity:0.1"/>
	<stop offset="1" style="stop-color:#000000;stop-opacity:0"/>
</linearGradient>
<path style="fill:url(#SVGID_1_);" d="M343.521,448c-7.138-13.021-10.854-29.531-12.207-42.667h-43.96L330.021,448H343.521z"/>
<linearGradient id="SVGID_2_" gradientUnits="userSpaceOnUse" x1="-66.634" y1="618.4434" x2="-44.2487" y2="608.0088" gradientTransform="matrix(21.3333 0 0 -21.3333 1430.1112 13315.2227)">
	<stop offset="0" style="stop-color:#FFFFFF;stop-opacity:0.2"/>
	<stop offset="1" style="stop-color:#FFFFFF;stop-opacity:0"/>
</linearGradient>
<path style="fill:url(#SVGID_2_);" d="M437.333,170.667H384v-21.333c0-10.348-3.85-19.717-9.999-27.112l0.165-0.138L287.625,19.042  C277.479,6.938,262.583,0,246.792,0H137.208c-15.792,0-30.688,6.938-40.833,19.031L9.833,122.083l0.165,0.138  C3.85,129.616,0,138.986,0,149.333V192c0,12.805,5.786,24.174,14.746,32C5.786,231.826,0,243.195,0,256v42.667  c0,23.531,19.146,42.667,42.667,42.667h106.667v32c0,17.646,14.354,32,32,32h84.59C263.43,425.948,254.505,448,245.333,448  c-5.896,0-10.667,4.771-10.667,10.667c0,5.896,4.771,10.667,10.667,10.667h128c5.896,0,10.667-4.771,10.667-10.667  c0-5.896-4.771-10.667-10.667-10.667c-9.172,0-18.096-22.052-20.59-42.667h84.59c17.646,0,32-14.354,32-32V202.667  C469.333,185.021,454.979,170.667,437.333,170.667z"/>
<g>
</g>
<g>
</g>
<g>
</g>
<g>
</g>
<g>
</g>
<g>
</g>
<g>
</g>
<g>
</g>
<g>
</g>
<g>
</g>
<g>
</g>
<g>
</g>
<g>
</g>
<g>
</g>
<g>
</g>
</svg>
