<?xml version="1.0" encoding="iso-8859-1"?>
<!-- Generator: Adobe Illustrator 19.0.0, SVG Export Plug-In . SVG Version: 6.00 Build 0)  -->
<svg xmlns="http://www.w3.org/2000/svg" xmlns:xlink="http://www.w3.org/1999/xlink" version="1.1" id="Capa_1" x="0px" y="0px" viewBox="0 0 469.333 469.333" style="enable-background:new 0 0 469.333 469.333;" xml:space="preserve">
<path style="fill:#303C42;" d="M469.333,192c0-7.251-1.828-14.078-5.031-20.063L373.583,25.271C363.792,9.448,346.833,0,328.219,0  H141.115C122.5,0,105.542,9.448,95.75,25.271L5.031,171.938C1.828,177.922,0,184.749,0,192v85.333c0,12.805,5.784,24.174,14.741,32  C5.784,317.159,0,328.529,0,341.333v85.333c0,23.531,19.135,42.667,42.667,42.667h384c23.531,0,42.667-19.135,42.667-42.667v-85.333  c0-12.805-5.784-24.174-14.741-32c8.957-7.826,14.741-19.195,14.741-32V192z"/>
<path style="fill:#F2F2F2;" d="M113.896,36.5c5.875-9.5,16.052-15.167,27.219-15.167h187.104c11.167,0,21.344,5.667,27.219,15.167  l69.792,112.833H44.104L113.896,36.5z"/>
<g>
	<path style="fill:#E6E6E6;" d="M448,426.667c0,11.76-9.573,21.333-21.333,21.333h-384c-11.76,0-21.333-9.573-21.333-21.333v-85.333   c0-11.76,9.573-21.333,21.333-21.333h384c11.76,0,21.333,9.573,21.333,21.333V426.667z"/>
	<path style="fill:#E6E6E6;" d="M448,277.333c0,11.76-9.573,21.333-21.333,21.333h-384c-11.76,0-21.333-9.573-21.333-21.333V192   c0-11.76,9.573-21.333,21.333-21.333h384c11.76,0,21.333,9.573,21.333,21.333V277.333z"/>
</g>
<linearGradient id="SVGID_1_" gradientUnits="userSpaceOnUse" x1="-60.7188" y1="620.7866" x2="-44.8509" y2="604.9236" gradientTransform="matrix(21.3333 0 0 -21.3333 1430.1112 13315.2227)">
	<stop offset="0" style="stop-color:#000000;stop-opacity:0.1"/>
	<stop offset="1" style="stop-color:#000000;stop-opacity:0"/>
</linearGradient>
<path style="fill:url(#SVGID_1_);" d="M426.667,320H181.333l128,128h117.333c11.76,0,21.333-9.573,21.333-21.333v-85.333  C448,329.573,438.427,320,426.667,320z M426.667,170.667h-384c-3.12,0-6.034,0.749-8.708,1.958L160,298.667h266.667  c11.76,0,21.333-9.573,21.333-21.333V192C448,180.24,438.427,170.667,426.667,170.667z"/>
<g>
	<path style="fill:#303C42;" d="M74.667,192C68.771,192,64,196.771,64,202.667v64c0,5.896,4.771,10.667,10.667,10.667   c5.896,0,10.667-4.771,10.667-10.667v-64C85.333,196.771,80.563,192,74.667,192z"/>
	<path style="fill:#303C42;" d="M117.333,192c-5.896,0-10.667,4.771-10.667,10.667v64c0,5.896,4.771,10.667,10.667,10.667   S128,272.563,128,266.667v-64C128,196.771,123.229,192,117.333,192z"/>
	<path style="fill:#303C42;" d="M160,192c-5.896,0-10.667,4.771-10.667,10.667v64c0,5.896,4.771,10.667,10.667,10.667   c5.896,0,10.667-4.771,10.667-10.667v-64C170.667,196.771,165.896,192,160,192z"/>
	<circle style="fill:#303C42;" cx="384" cy="234.667" r="21.333"/>
	<circle style="fill:#303C42;" cx="320" cy="234.667" r="21.333"/>
	<path style="fill:#303C42;" d="M74.667,341.333C68.771,341.333,64,346.104,64,352v64c0,5.896,4.771,10.667,10.667,10.667   c5.896,0,10.667-4.771,10.667-10.667v-64C85.333,346.104,80.563,341.333,74.667,341.333z"/>
	<path style="fill:#303C42;" d="M117.333,341.333c-5.896,0-10.667,4.771-10.667,10.667v64c0,5.896,4.771,10.667,10.667,10.667   S128,421.896,128,416v-64C128,346.104,123.229,341.333,117.333,341.333z"/>
	<path style="fill:#303C42;" d="M160,341.333c-5.896,0-10.667,4.771-10.667,10.667v64c0,5.896,4.771,10.667,10.667,10.667   c5.896,0,10.667-4.771,10.667-10.667v-64C170.667,346.104,165.896,341.333,160,341.333z"/>
	<circle style="fill:#303C42;" cx="384" cy="384" r="21.333"/>
	<circle style="fill:#303C42;" cx="320" cy="384" r="21.333"/>
</g>
<linearGradient id="SVGID_2_" gradientUnits="userSpaceOnUse" x1="-66.4088" y1="616.939" x2="-43.7859" y2="606.3896" gradientTransform="matrix(21.3333 0 0 -21.3333 1430.1112 13315.2227)">
	<stop offset="0" style="stop-color:#FFFFFF;stop-opacity:0.2"/>
	<stop offset="1" style="stop-color:#FFFFFF;stop-opacity:0"/>
</linearGradient>
<path style="fill:url(#SVGID_2_);" d="M469.333,192c0-7.251-1.828-14.078-5.031-20.063L373.583,25.271  C363.792,9.448,346.833,0,328.219,0H141.115C122.5,0,105.542,9.448,95.75,25.271L5.031,171.938C1.828,177.922,0,184.749,0,192  v85.333c0,12.805,5.784,24.174,14.741,32C5.784,317.159,0,328.529,0,341.333v85.333c0,23.531,19.135,42.667,42.667,42.667h384  c23.531,0,42.667-19.135,42.667-42.667v-85.333c0-12.805-5.784-24.174-14.741-32c8.957-7.826,14.741-19.195,14.741-32V192z"/>
<g>
</g>
<g>
</g>
<g>
</g>
<g>
</g>
<g>
</g>
<g>
</g>
<g>
</g>
<g>
</g>
<g>
</g>
<g>
</g>
<g>
</g>
<g>
</g>
<g>
</g>
<g>
</g>
<g>
</g>
</svg>
