<?xml version="1.0" encoding="iso-8859-1"?>
<!-- Generator: Adobe Illustrator 19.0.0, SVG Export Plug-In . SVG Version: 6.00 Build 0)  -->
<svg xmlns="http://www.w3.org/2000/svg" xmlns:xlink="http://www.w3.org/1999/xlink" version="1.1" id="Capa_1" x="0px" y="0px" viewBox="0 0 469.333 469.333" style="enable-background:new 0 0 469.333 469.333;" xml:space="preserve">
<path style="fill:#303C42;" d="M469.333,128V42.667C469.333,19.135,450.198,0,426.667,0h-384C19.135,0,0,19.135,0,42.667V128  c0,12.805,5.784,24.174,14.741,32C5.784,167.826,0,179.195,0,192v85.333C0,300.865,19.135,320,42.667,320H224v85.333h-10.667  c-5.896,0-10.667,4.771-10.667,10.667v10.667H53.333c-5.896,0-10.667,4.771-10.667,10.667S47.438,448,53.333,448h149.333v10.667  c0,5.896,4.771,10.667,10.667,10.667H256c5.896,0,10.667-4.771,10.667-10.667V448H416c5.896,0,10.667-4.771,10.667-10.667  s-4.771-10.667-10.667-10.667H266.667V416c0-5.896-4.771-10.667-10.667-10.667h-10.667V320h181.333  c23.531,0,42.667-19.135,42.667-42.667V192c0-12.805-5.784-24.174-14.741-32C463.549,152.174,469.333,140.805,469.333,128z"/>
<rect x="224" y="426.667" style="fill:#E65100;" width="21.333" height="21.333"/>
<g>
	<path style="fill:#E6E6E6;" d="M448,192v85.333c0,11.76-9.573,21.333-21.333,21.333h-384c-11.76,0-21.333-9.573-21.333-21.333V192   c0-11.76,9.573-21.333,21.333-21.333h384C438.427,170.667,448,180.24,448,192z"/>
	<path style="fill:#E6E6E6;" d="M42.667,149.333c-11.76,0-21.333-9.573-21.333-21.333V42.667c0-11.76,9.573-21.333,21.333-21.333   h384c11.76,0,21.333,9.573,21.333,21.333V128c0,11.76-9.573,21.333-21.333,21.333H42.667z"/>
</g>
<path style="opacity:0.2;fill:#FFFFFF;enable-background:new    ;" d="M42.667,277.333V192c0-11.76,8.616-21.333,19.201-21.333  H42.667c-11.76,0-21.333,9.573-21.333,21.333v85.333c0,11.76,9.573,21.333,21.333,21.333h19.201  C51.283,298.667,42.667,289.094,42.667,277.333z"/>
<path style="opacity:0.1;enable-background:new    ;" d="M426.667,170.667h-19.201c10.585,0,19.201,9.573,19.201,21.333v85.333  c0,11.76-8.616,21.333-19.201,21.333h19.201c11.76,0,21.333-9.573,21.333-21.333V192C448,180.24,438.427,170.667,426.667,170.667z"/>
<path style="opacity:0.2;fill:#FFFFFF;enable-background:new    ;" d="M42.667,128V42.667c0-11.76,8.616-21.333,19.201-21.333  H42.667c-11.76,0-21.333,9.573-21.333,21.333V128c0,11.76,9.573,21.333,21.333,21.333h19.201  C51.283,149.333,42.667,139.76,42.667,128z"/>
<path style="opacity:0.1;enable-background:new    ;" d="M426.667,21.333h-19.201c10.585,0,19.201,9.573,19.201,21.333V128  c0,11.76-8.616,21.333-19.201,21.333h19.201c11.76,0,21.333-9.573,21.333-21.333V42.667C448,30.906,438.427,21.333,426.667,21.333z"/>
<g>
	<path style="fill:#303C42;" d="M74.667,42.667C68.771,42.667,64,47.438,64,53.333v64C64,123.229,68.771,128,74.667,128   c5.896,0,10.667-4.771,10.667-10.667v-64C85.333,47.438,80.563,42.667,74.667,42.667z"/>
	<path style="fill:#303C42;" d="M117.333,42.667c-5.896,0-10.667,4.771-10.667,10.667v64c0,5.896,4.771,10.667,10.667,10.667   S128,123.229,128,117.333v-64C128,47.438,123.229,42.667,117.333,42.667z"/>
	<path style="fill:#303C42;" d="M160,42.667c-5.896,0-10.667,4.771-10.667,10.667v64c0,5.896,4.771,10.667,10.667,10.667   c5.896,0,10.667-4.771,10.667-10.667v-64C170.667,47.438,165.896,42.667,160,42.667z"/>
	<circle style="fill:#303C42;" cx="384" cy="85.333" r="21.333"/>
	<circle style="fill:#303C42;" cx="320" cy="85.333" r="21.333"/>
	<path style="fill:#303C42;" d="M74.667,277.333c5.896,0,10.667-4.771,10.667-10.667v-64c0-5.896-4.771-10.667-10.667-10.667   C68.771,192,64,196.771,64,202.667v64C64,272.563,68.771,277.333,74.667,277.333z"/>
	<path style="fill:#303C42;" d="M117.333,277.333c5.896,0,10.667-4.771,10.667-10.667v-64c0-5.896-4.771-10.667-10.667-10.667   s-10.667,4.771-10.667,10.667v64C106.667,272.563,111.438,277.333,117.333,277.333z"/>
	<path style="fill:#303C42;" d="M160,277.333c5.896,0,10.667-4.771,10.667-10.667v-64c0-5.896-4.771-10.667-10.667-10.667   c-5.896,0-10.667,4.771-10.667,10.667v64C149.333,272.563,154.104,277.333,160,277.333z"/>
	<circle style="fill:#303C42;" cx="384" cy="234.667" r="21.333"/>
	<circle style="fill:#303C42;" cx="320" cy="234.667" r="21.333"/>
</g>
<linearGradient id="SVGID_1_" gradientUnits="userSpaceOnUse" x1="-68.423" y1="619.6209" x2="-44.6968" y2="608.5573" gradientTransform="matrix(21.3333 0 0 -21.3333 1430.1112 13315.2227)">
	<stop offset="0" style="stop-color:#FFFFFF;stop-opacity:0.2"/>
	<stop offset="1" style="stop-color:#FFFFFF;stop-opacity:0"/>
</linearGradient>
<path style="fill:url(#SVGID_1_);" d="M469.333,128V42.667C469.333,19.135,450.198,0,426.667,0h-384C19.135,0,0,19.135,0,42.667V128  c0,12.805,5.784,24.174,14.741,32C5.784,167.826,0,179.195,0,192v85.333C0,300.865,19.135,320,42.667,320H224v85.333h-10.667  c-5.896,0-10.667,4.771-10.667,10.667v10.667H53.333c-5.896,0-10.667,4.771-10.667,10.667S47.438,448,53.333,448h149.333v10.667  c0,5.896,4.771,10.667,10.667,10.667H256c5.896,0,10.667-4.771,10.667-10.667V448H416c5.896,0,10.667-4.771,10.667-10.667  s-4.771-10.667-10.667-10.667H266.667V416c0-5.896-4.771-10.667-10.667-10.667h-10.667V320h181.333  c23.531,0,42.667-19.135,42.667-42.667V192c0-12.805-5.784-24.174-14.741-32C463.549,152.174,469.333,140.805,469.333,128z"/>
<g>
</g>
<g>
</g>
<g>
</g>
<g>
</g>
<g>
</g>
<g>
</g>
<g>
</g>
<g>
</g>
<g>
</g>
<g>
</g>
<g>
</g>
<g>
</g>
<g>
</g>
<g>
</g>
<g>
</g>
</svg>
