<svg xmlns="http://www.w3.org/2000/svg" xmlns:xlink="http://www.w3.org/1999/xlink" width="667" zoomAndPan="magnify" viewBox="0 0 500.25 250.499992" height="334" preserveAspectRatio="xMidYMid meet" version="1.0"><defs><filter x="0%" y="0%" width="100%" height="100%" id="822acd4e1e"><feColorMatrix values="0 0 0 0 1 0 0 0 0 1 0 0 0 0 1 0 0 0 1 0" color-interpolation-filters="sRGB"/></filter><clipPath id="e64d364434"><path d="M 0.125 0 L 499.378906 0 L 499.378906 250 L 0.125 250 Z M 0.125 0 " clip-rule="nonzero"/></clipPath><clipPath id="f036ea408b"><path d="M 7.777344 246.90625 L 55.816406 246.90625 L 55.816406 249.6875 L 7.777344 249.6875 Z M 7.777344 246.90625 " clip-rule="nonzero"/></clipPath><clipPath id="6bbf7683c4"><path d="M 36 144.148438 L 41 144.148438 L 41 145 L 36 145 Z M 36 144.148438 " clip-rule="nonzero"/></clipPath><clipPath id="f3d6f1f6d9"><path d="M 50 144.148438 L 55 144.148438 L 55 145 L 50 145 Z M 50 144.148438 " clip-rule="nonzero"/></clipPath><clipPath id="c44f290ccc"><path d="M 60 144.148438 L 62 144.148438 L 62 145 L 60 145 Z M 60 144.148438 " clip-rule="nonzero"/></clipPath><clipPath id="c1ea4a7979"><path d="M 62 144.148438 L 67 144.148438 L 67 145 L 62 145 Z M 62 144.148438 " clip-rule="nonzero"/></clipPath><clipPath id="2e7596eb30"><path d="M 67 144.148438 L 70 144.148438 L 70 145 L 67 145 Z M 67 144.148438 " clip-rule="nonzero"/></clipPath><clipPath id="97f4c2d588"><path d="M 70 144.148438 L 75 144.148438 L 75 145 L 70 145 Z M 70 144.148438 " clip-rule="nonzero"/></clipPath><clipPath id="d9e0d76b00"><path d="M 35 246 L 48 246 L 48 249.6875 L 35 249.6875 Z M 35 246 " clip-rule="nonzero"/></clipPath><clipPath id="9ce9bed8e1"><path d="M 60 144.148438 L 67 144.148438 L 67 154 L 60 154 Z M 60 144.148438 " clip-rule="nonzero"/></clipPath><mask id="2dd881a767"><g filter="url(#822acd4e1e)"><rect x="-50.025" width="600.3" fill="#000000" y="-25.049999" height="300.599991" fill-opacity="0.9882"/></g></mask><clipPath id="501f3387b0"><path d="M 1 0.1875 L 45.648438 0.1875 L 45.648438 38.347656 L 1 38.347656 Z M 1 0.1875 " clip-rule="nonzero"/></clipPath><clipPath id="a9f2dffd6f"><rect x="0" width="46" y="0" height="39"/></clipPath></defs><g clip-path="url(#e64d364434)"><path fill="#ffffff" d="M 0.125 0 L 500.125 0 L 500.125 257.484375 L 0.125 257.484375 Z M 0.125 0 " fill-opacity="1" fill-rule="nonzero"/><path fill="#ffffff" d="M 0.125 0 L 499.378906 0 L 499.378906 250 L 0.125 250 Z M 0.125 0 " fill-opacity="1" fill-rule="nonzero"/><path fill="#b8e1a0" d="M 0.125 0 L 499.378906 0 L 499.378906 250 L 0.125 250 Z M 0.125 0 " fill-opacity="1" fill-rule="nonzero"/></g><g clip-path="url(#f036ea408b)"><path fill="#84ceca" d="M 55.769531 248.554688 C 55.769531 249.460938 45.027344 250.191406 31.773438 250.191406 C 18.519531 250.191406 7.777344 249.460938 7.777344 248.554688 C 7.777344 247.652344 18.519531 246.917969 31.773438 246.917969 C 45.027344 246.917969 55.769531 247.652344 55.769531 248.554688 " fill-opacity="1" fill-rule="nonzero"/></g><path fill="#fa634b" d="M 53.058594 162.976562 L 60.890625 171.492188 C 60.890625 171.492188 61.476562 171.386719 61.625 171.496094 C 61.875 171.679688 61.996094 172.695312 61.996094 172.695312 C 61.996094 172.695312 64.929688 164.007812 67.8125 162.90625 C 69.09375 162.417969 71.53125 163.3125 71.71875 164.679688 C 71.988281 166.632812 70.414062 170.203125 69.988281 173.011719 C 69.167969 178.441406 66.59375 182.226562 62.984375 182.578125 C 60.652344 182.804688 59.070312 181.304688 57.367188 179.664062 C 55.003906 177.386719 52.882812 174.449219 52.414062 172.019531 C 51.601562 167.835938 53.058594 162.976562 53.058594 162.976562 " fill-opacity="1" fill-rule="nonzero"/><path fill="#ffa982" d="M 70.023438 164.269531 C 70.023438 164.269531 73.058594 162.265625 73.125 161.304688 C 73.164062 160.746094 72.058594 159.621094 72.058594 159.621094 C 72.058594 159.621094 73.835938 158.691406 73.835938 158.445312 C 73.84375 158.058594 70.777344 159.230469 70.777344 159.230469 C 70.777344 159.230469 70.015625 159.113281 69.492188 159.527344 C 68.246094 160.523438 67.988281 162.144531 67.878906 163.082031 C 67.773438 164.019531 69.113281 164.945312 70.023438 164.269531 " fill-opacity="1" fill-rule="nonzero"/><path fill="#ffa982" d="M 24.011719 194.929688 C 24.011719 194.929688 23.171875 196.414062 22.804688 196.707031 C 22.441406 196.996094 20.222656 198.515625 19.777344 199.261719 C 19.335938 200.003906 18.632812 203.0625 18.792969 203.019531 C 18.953125 202.980469 19.089844 202.707031 19.089844 202.707031 C 19.089844 202.707031 18.734375 203.851562 18.890625 204.066406 L 19.183594 204.128906 C 19.183594 204.128906 19.234375 204.472656 19.523438 204.539062 C 19.8125 204.601562 20.890625 202.265625 20.964844 202.28125 C 21.035156 202.296875 19.960938 204.277344 20.355469 204.445312 C 20.753906 204.609375 22.511719 200.6875 22.804688 200.957031 C 23.101562 201.230469 22.417969 203.167969 23.015625 203.683594 C 23.613281 204.203125 23.554688 202.964844 23.664062 202.476562 C 23.773438 201.992188 24.835938 199.371094 24.988281 198.5625 C 25.144531 197.753906 26.492188 196.195312 26.09375 195.597656 C 25.691406 194.996094 24.234375 194.488281 24.011719 194.929688 " fill-opacity="1" fill-rule="nonzero"/><path fill="#2e2e47" d="M 52.433594 172.109375 C 52.765625 173.695312 53.78125 175.488281 55.105469 177.167969 C 55.136719 176.222656 55.15625 174.898438 55.226562 173.863281 C 55.347656 172.015625 53.542969 166.359375 53.542969 166.359375 L 52.433594 172.109375 " fill-opacity="1" fill-rule="nonzero"/><g clip-path="url(#6bbf7683c4)"><path fill="#000000" d="M 37.382812 140.417969 L 38.199219 140.316406 C 39.054688 140.152344 39.601562 139.480469 39.601562 138.667969 C 39.601562 138.132812 39.292969 137.902344 38.621094 137.902344 C 38.191406 137.902344 37.707031 138.058594 37.394531 138.207031 C 37.464844 138.226562 37.652344 138.289062 37.632812 138.519531 C 37.550781 139.074219 37.464844 139.644531 37.382812 140.417969 Z M 37.328125 140.933594 C 37.238281 141.875 37.144531 142.871094 37.144531 143.238281 C 37.144531 143.421875 37.566406 143.550781 37.980469 143.550781 C 38.878906 143.550781 39.675781 142.804688 39.675781 141.792969 C 39.675781 141.292969 39.308594 140.851562 38.382812 140.851562 C 38.292969 140.851562 38.191406 140.851562 38.089844 140.859375 C 37.824219 140.878906 37.566406 140.90625 37.328125 140.933594 Z M 36.980469 138.402344 L 36.816406 138.519531 L 36.585938 138.117188 C 36.53125 138.03125 36.597656 137.976562 36.667969 137.929688 C 36.90625 137.757812 37.75 137.359375 38.640625 137.359375 C 39.347656 137.359375 40.28125 137.644531 40.28125 138.546875 C 40.28125 139.679688 39.585938 140.269531 38.878906 140.492188 C 39.914062 140.574219 40.355469 141.128906 40.355469 141.773438 C 40.355469 143.082031 39.300781 144.121094 38.042969 144.121094 C 37.054688 144.121094 36.457031 143.773438 36.457031 143.359375 C 36.457031 142.566406 36.75 139.792969 36.980469 138.402344 " fill-opacity="1" fill-rule="nonzero"/></g><g clip-path="url(#f3d6f1f6d9)"><path fill="#000000" d="M 53.75 138.484375 C 53.75 138.171875 53.464844 137.929688 52.945312 137.929688 C 52.15625 137.929688 51.175781 139.082031 51.175781 141.644531 C 51.175781 143.042969 51.695312 143.441406 52.503906 143.441406 C 53.164062 143.441406 53.898438 142.539062 53.953125 141.394531 C 53.953125 141.339844 53.960938 141.292969 53.941406 141.265625 C 53.832031 141.171875 53.328125 141.136719 52.898438 141.109375 C 52.796875 141.109375 52.75 141.054688 52.742188 141 C 52.734375 140.914062 52.714844 140.777344 52.714844 140.695312 C 52.714844 140.601562 52.769531 140.566406 52.878906 140.566406 C 53.292969 140.566406 54.035156 140.65625 54.382812 140.789062 C 54.585938 140.871094 54.632812 140.898438 54.632812 141.164062 C 54.632812 142.34375 53.816406 144.046875 52.539062 144.046875 C 51.496094 144.046875 50.488281 143.496094 50.488281 141.589844 C 50.488281 138.945312 51.660156 137.277344 52.925781 137.277344 C 53.703125 137.277344 54.449219 137.71875 54.449219 138.355469 C 54.449219 138.761719 54.292969 139.046875 54.027344 139.433594 C 54 139.46875 53.953125 139.542969 53.859375 139.515625 C 53.722656 139.46875 53.464844 139.332031 53.464844 139.230469 C 53.464844 139.210938 53.464844 139.183594 53.484375 139.15625 C 53.613281 138.972656 53.75 138.6875 53.75 138.484375 " fill-opacity="1" fill-rule="nonzero"/></g><g clip-path="url(#c44f290ccc)"><path fill="#000000" d="M 60.628906 144.039062 C 60.304688 144.039062 60.03125 143.910156 60.03125 143.761719 C 60.03125 142.34375 60.628906 138.03125 60.839844 137.40625 C 60.855469 137.359375 60.882812 137.332031 60.9375 137.332031 C 61.160156 137.332031 61.507812 137.414062 61.507812 137.488281 C 61.507812 137.507812 61.507812 137.515625 61.507812 137.535156 C 61.304688 138.335938 60.773438 142.039062 60.71875 143.964844 C 60.71875 144.011719 60.683594 144.039062 60.628906 144.039062 " fill-opacity="1" fill-rule="nonzero"/></g><g clip-path="url(#c1ea4a7979)"><path fill="#000000" d="M 65.863281 144.003906 C 65.550781 144.003906 65.210938 143.882812 65.210938 143.78125 C 64.890625 142.519531 63.984375 139.449219 63.734375 138.675781 C 63.542969 139.625 63.183594 142.355469 63.085938 143.992188 C 63.085938 144.050781 63.058594 144.078125 63 144.078125 C 62.507812 144.078125 62.425781 143.863281 62.425781 143.734375 C 62.441406 143.597656 62.441406 143.441406 62.460938 143.285156 C 62.609375 141.394531 63.113281 138.171875 63.277344 137.601562 C 63.296875 137.5625 63.3125 137.515625 63.378906 137.515625 C 63.652344 137.515625 63.957031 137.582031 64 137.691406 L 64.054688 137.839844 C 64.359375 138.695312 65.191406 141.25 65.441406 142.546875 C 65.699219 140.390625 66.101562 138.519531 66.367188 137.554688 C 66.375 137.527344 66.394531 137.488281 66.449219 137.488281 C 66.667969 137.488281 66.980469 137.609375 66.980469 137.699219 C 66.722656 138.890625 66.148438 141.496094 65.953125 143.929688 C 65.953125 143.984375 65.917969 144.003906 65.863281 144.003906 " fill-opacity="1" fill-rule="nonzero"/></g><g clip-path="url(#2e7596eb30)"><path fill="#000000" d="M 68.402344 144.039062 C 68.082031 144.039062 67.804688 143.910156 67.804688 143.761719 C 67.804688 142.34375 68.402344 138.03125 68.613281 137.40625 C 68.632812 137.359375 68.660156 137.332031 68.714844 137.332031 C 68.933594 137.332031 69.28125 137.414062 69.28125 137.488281 C 69.28125 137.507812 69.28125 137.515625 69.28125 137.535156 C 69.082031 138.335938 68.550781 142.039062 68.492188 143.964844 C 68.492188 144.011719 68.457031 144.039062 68.402344 144.039062 " fill-opacity="1" fill-rule="nonzero"/></g><g clip-path="url(#97f4c2d588)"><path fill="#000000" d="M 73.636719 144.003906 C 73.324219 144.003906 72.988281 143.882812 72.988281 143.78125 C 72.664062 142.519531 71.757812 139.449219 71.511719 138.675781 C 71.316406 139.625 70.960938 142.355469 70.859375 143.992188 C 70.859375 144.050781 70.832031 144.078125 70.777344 144.078125 C 70.28125 144.078125 70.199219 143.863281 70.199219 143.734375 C 70.21875 143.597656 70.21875 143.441406 70.234375 143.285156 C 70.382812 141.394531 70.886719 138.171875 71.050781 137.601562 C 71.070312 137.5625 71.089844 137.515625 71.152344 137.515625 C 71.425781 137.515625 71.730469 137.582031 71.777344 137.691406 L 71.832031 137.839844 C 72.132812 138.695312 72.96875 141.25 73.214844 142.546875 C 73.472656 140.390625 73.875 138.519531 74.140625 137.554688 C 74.152344 137.527344 74.167969 137.488281 74.226562 137.488281 C 74.445312 137.488281 74.757812 137.609375 74.757812 137.699219 C 74.5 138.890625 73.921875 141.496094 73.730469 143.929688 C 73.730469 143.984375 73.691406 144.003906 73.636719 144.003906 " fill-opacity="1" fill-rule="nonzero"/></g><path fill="#ffc97d" d="M 26.984375 247.667969 C 27.792969 247.589844 28.5 247.257812 28.902344 247.03125 C 28.898438 246.859375 29.238281 246.292969 28.945312 245.832031 C 28.628906 245.324219 28.007812 245.625 26.894531 245.464844 C 25.78125 245.304688 25.671875 244.5625 24.71875 243.714844 C 23.769531 242.867188 24.6875 240.5625 24.21875 240.371094 C 23.753906 240.175781 22.40625 240.675781 21 240.683594 C 19.589844 240.695312 19.25 240.546875 19.25 240.546875 C 18.496094 241.234375 19.070312 241.894531 19.007812 242.675781 C 18.949219 243.453125 18.699219 243.554688 18.273438 244.582031 C 17.851562 245.609375 17.914062 246.28125 17.914062 246.28125 C 17.914062 246.28125 19.171875 246.820312 20.910156 247.191406 C 22.648438 247.5625 25.734375 247.785156 26.984375 247.667969 " fill-opacity="1" fill-rule="nonzero"/><path fill="#cc8b70" d="M 28.914062 247.070312 C 28.90625 247.0625 28.902344 247.050781 28.902344 247.03125 C 28.5 247.257812 27.792969 247.589844 26.984375 247.667969 C 25.734375 247.785156 22.648438 247.5625 20.910156 247.191406 C 19.171875 246.820312 17.914062 246.28125 17.914062 246.28125 C 17.914062 246.28125 17.757812 246.339844 17.679688 246.5625 C 17.605469 246.785156 17.195312 247.730469 17.347656 247.921875 C 17.5 248.117188 19.648438 248.34375 20.085938 248.402344 C 20.519531 248.460938 20.511719 247.929688 20.691406 247.789062 C 20.871094 247.644531 21.925781 247.898438 22.371094 247.992188 C 22.820312 248.085938 22.535156 248.148438 22.550781 248.34375 C 22.5625 248.539062 22.828125 248.460938 23.699219 248.542969 C 24.570312 248.621094 27.722656 248.304688 28.175781 248.265625 C 28.625 248.230469 28.925781 247.953125 29.027344 247.609375 C 29.125 247.269531 29 247.175781 28.914062 247.070312 " fill-opacity="1" fill-rule="nonzero"/><path fill="#2e2e47" d="M 22.890625 242.007812 C 22.992188 241.847656 23 240.867188 23 240.445312 C 22.421875 240.546875 21.714844 240.679688 21 240.683594 C 20.382812 240.6875 19.96875 240.664062 19.703125 240.632812 C 19.742188 241.183594 19.847656 242.0625 20.089844 242.242188 C 20.449219 242.503906 22.761719 242.214844 22.890625 242.007812 " fill-opacity="1" fill-rule="nonzero"/><path fill="#ffc97d" d="M 45.105469 248.132812 C 45.914062 248.058594 46.621094 247.726562 47.023438 247.5 C 47.019531 247.328125 47.359375 246.761719 47.070312 246.296875 C 46.75 245.789062 46.132812 246.089844 45.015625 245.933594 C 43.902344 245.773438 43.792969 245.027344 42.839844 244.179688 C 41.890625 243.335938 42.808594 241.03125 42.34375 240.835938 C 41.875 240.644531 40.527344 241.140625 39.121094 241.152344 C 37.714844 241.160156 37.375 241.015625 37.375 241.015625 C 36.617188 241.703125 37.195312 242.363281 37.132812 243.140625 C 37.070312 243.921875 36.820312 244.023438 36.398438 245.050781 C 35.972656 246.078125 36.035156 246.746094 36.035156 246.746094 C 36.035156 246.746094 37.296875 247.285156 39.03125 247.65625 C 40.769531 248.027344 43.855469 248.253906 45.105469 248.132812 " fill-opacity="1" fill-rule="nonzero"/><g clip-path="url(#d9e0d76b00)"><path fill="#cc8b70" d="M 47.035156 247.539062 C 47.027344 247.527344 47.027344 247.515625 47.023438 247.5 C 46.621094 247.726562 45.914062 248.058594 45.105469 248.132812 C 43.855469 248.253906 40.769531 248.027344 39.03125 247.65625 C 37.296875 247.285156 36.035156 246.746094 36.035156 246.746094 C 36.035156 246.746094 35.878906 246.808594 35.804688 247.03125 C 35.726562 247.253906 35.316406 248.199219 35.46875 248.390625 C 35.621094 248.582031 37.773438 248.8125 38.207031 248.871094 C 38.644531 248.929688 38.632812 248.398438 38.8125 248.253906 C 38.996094 248.113281 40.046875 248.363281 40.496094 248.460938 C 40.941406 248.554688 40.660156 248.617188 40.671875 248.8125 C 40.6875 249.003906 40.953125 248.929688 41.820312 249.007812 C 42.691406 249.089844 45.847656 248.769531 46.296875 248.734375 C 46.75 248.695312 47.050781 248.417969 47.148438 248.078125 C 47.246094 247.734375 47.121094 247.640625 47.035156 247.539062 " fill-opacity="1" fill-rule="nonzero"/></g><path fill="#2e2e47" d="M 41.011719 242.476562 C 41.113281 242.3125 41.121094 241.335938 41.121094 240.910156 C 40.542969 241.011719 39.839844 241.144531 39.121094 241.152344 C 38.503906 241.15625 38.089844 241.128906 37.824219 241.097656 C 37.867188 241.648438 37.972656 242.53125 38.214844 242.707031 C 38.574219 242.972656 40.882812 242.683594 41.011719 242.476562 " fill-opacity="1" fill-rule="nonzero"/><path fill="#ffe2bd" d="M 33.335938 187.933594 C 33.019531 188.933594 32.714844 191.722656 31.019531 196.964844 C 27 209.410156 19.550781 230.730469 17.171875 239.089844 C 16.484375 241.503906 17.199219 242.25 17.199219 242.25 L 25.339844 242.289062 C 25.339844 242.289062 26.402344 241.390625 26.871094 240.445312 C 31.507812 231.15625 40.484375 199.777344 40.484375 199.777344 C 40.484375 199.777344 35.519531 229.125 35.300781 239.015625 C 35.28125 239.898438 35.605469 242.535156 35.605469 242.535156 L 43.945312 242.535156 C 43.945312 242.535156 44.746094 241.15625 44.972656 239.460938 C 45.800781 233.253906 47.292969 218.136719 49.53125 208.519531 C 51.292969 200.949219 52.300781 193.941406 51.417969 187.273438 C 50.371094 179.355469 35.382812 181.519531 33.335938 187.933594 " fill-opacity="1" fill-rule="nonzero"/><path fill="#fa634b" d="M 38.605469 163.527344 C 40.257812 161.433594 48.449219 159.050781 52.875 162.78125 C 54.777344 164.382812 53.609375 175.105469 52.644531 184.527344 C 52.140625 189.4375 53.96875 194.636719 51.980469 197.554688 C 49.941406 200.546875 31.175781 197.882812 30.6875 195.996094 C 28.488281 187.515625 34.832031 168.300781 38.605469 163.527344 " fill-opacity="1" fill-rule="nonzero"/><path fill="#fa634b" d="M 38.515625 163.9375 C 38.515625 163.9375 31.300781 175.90625 30.636719 177.242188 C 29.972656 178.578125 21.042969 192.316406 22.371094 195.28125 C 23.699219 198.246094 25.691406 199.210938 27.460938 198.320312 C 29.234375 197.433594 36.6875 182.214844 37.5 179.996094 C 38.3125 177.78125 42.023438 166.660156 41.191406 164.507812 C 40.355469 162.359375 39.128906 162.761719 38.515625 163.9375 " fill-opacity="1" fill-rule="nonzero"/><path fill="#fa634b" d="M 31.015625 195.8125 L 30.832031 196.464844 C 30.777344 196.65625 30.855469 196.859375 31.019531 196.964844 C 31.523438 197.289062 32.816406 197.945312 35.605469 198.476562 C 39.484375 199.214844 41.402344 199.605469 45.320312 199.5 C 48.363281 199.421875 50.484375 198.984375 51.277344 198.792969 C 51.484375 198.742188 51.636719 198.5625 51.648438 198.351562 L 51.71875 197.410156 L 31.015625 195.8125 " fill-opacity="1" fill-rule="nonzero"/><path fill="#ffedd9" d="M 35.390625 241.441406 C 35.390625 241.441406 34.792969 243.328125 35.4375 243.484375 C 36.085938 243.644531 39.972656 243.546875 41.65625 243.679688 C 43.339844 243.8125 44.46875 243.609375 44.5625 243.296875 C 44.652344 242.980469 45.023438 241.75 44.65625 241.46875 C 44.289062 241.191406 35.390625 241.441406 35.390625 241.441406 " fill-opacity="1" fill-rule="nonzero"/><path fill="#ffedd9" d="M 16.554688 241.363281 C 16.554688 241.363281 16.0625 243.363281 16.738281 243.519531 C 17.414062 243.675781 21.476562 243.574219 23.234375 243.703125 C 24.992188 243.835938 26.175781 243.632812 26.269531 243.316406 C 26.363281 243.003906 26.753906 241.773438 26.371094 241.492188 C 25.988281 241.210938 16.554688 241.363281 16.554688 241.363281 " fill-opacity="1" fill-rule="nonzero"/><path fill="#2e2e47" d="M 38.117188 200.464844 C 38.089844 200.464844 38.066406 200.445312 38.058594 200.421875 C 38.046875 200.386719 38.066406 200.355469 38.097656 200.34375 C 38.136719 200.332031 41.785156 199.308594 44.667969 199.457031 C 45.574219 199.5 45.574219 199.554688 45.574219 199.625 C 45.574219 199.703125 45.574219 199.773438 43.792969 199.90625 C 42.941406 199.96875 42.078125 200.015625 42.066406 200.015625 C 42.035156 200.015625 42.003906 199.992188 42.003906 199.957031 C 42.003906 199.921875 42.027344 199.894531 42.0625 199.890625 C 43.136719 199.835938 44.796875 199.722656 45.316406 199.628906 C 45.203125 199.613281 45.003906 199.597656 44.664062 199.578125 C 41.800781 199.433594 38.167969 200.453125 38.132812 200.460938 C 38.128906 200.464844 38.121094 200.464844 38.117188 200.464844 " fill-opacity="1" fill-rule="nonzero"/><path fill="#2e2e47" d="M 37.09375 239.089844 C 37.066406 239.089844 37.042969 239.070312 37.035156 239.042969 C 36.925781 238.476562 37.117188 237.753906 37.335938 236.917969 C 37.527344 236.179688 37.746094 235.339844 37.761719 234.519531 C 37.796875 232.714844 38.664062 229.792969 39.414062 227.449219 C 40.269531 224.769531 40.164062 214.40625 40.136719 212.355469 C 40.097656 209.574219 41.550781 200.6875 41.566406 200.597656 C 41.570312 200.566406 41.601562 200.542969 41.636719 200.546875 C 41.667969 200.554688 41.691406 200.585938 41.6875 200.617188 C 41.671875 200.707031 40.21875 209.582031 40.257812 212.355469 C 40.289062 214.40625 40.394531 224.789062 39.53125 227.484375 C 38.785156 229.824219 37.921875 232.734375 37.886719 234.519531 C 37.867188 235.355469 37.648438 236.203125 37.453125 236.949219 C 37.238281 237.769531 37.050781 238.480469 37.15625 239.019531 C 37.160156 239.050781 37.140625 239.085938 37.105469 239.089844 C 37.101562 239.089844 37.097656 239.089844 37.09375 239.089844 " fill-opacity="1" fill-rule="nonzero"/><path fill="#2e2e47" d="M 18.609375 240.507812 C 18.601562 240.507812 18.59375 240.503906 18.585938 240.503906 C 18.554688 240.492188 18.539062 240.457031 18.550781 240.425781 C 18.558594 240.398438 19.410156 237.886719 19.8125 236.1875 C 19.984375 235.464844 20.742188 233.3125 21.621094 230.824219 C 22.84375 227.359375 24.226562 223.433594 24.464844 222.125 C 24.851562 219.996094 25.546875 217.042969 26.347656 215.140625 C 27.078125 213.398438 29.730469 206.300781 29.933594 203.3125 C 30.09375 200.929688 30.863281 199.21875 31.25 198.648438 C 31.269531 198.617188 31.304688 198.609375 31.335938 198.628906 C 31.363281 198.648438 31.371094 198.6875 31.351562 198.714844 C 30.972656 199.28125 30.214844 200.964844 30.054688 203.320312 C 29.851562 206.328125 27.191406 213.445312 26.460938 215.1875 C 25.664062 217.082031 24.96875 220.023438 24.585938 222.148438 C 24.347656 223.464844 22.960938 227.394531 21.738281 230.863281 C 20.859375 233.351562 20.101562 235.5 19.933594 236.214844 C 19.527344 237.921875 18.675781 240.441406 18.664062 240.464844 C 18.65625 240.488281 18.632812 240.507812 18.609375 240.507812 " fill-opacity="1" fill-rule="nonzero"/><path fill="#2e2e47" d="M 42.488281 153.222656 C 42.554688 153.628906 42.960938 154.378906 43.085938 154.976562 C 43.425781 156.605469 44.535156 157.707031 45.859375 157.863281 C 47.75 158.085938 45.824219 152.464844 45.453125 152.140625 C 45.085938 151.816406 42.1875 151.386719 42.488281 153.222656 " fill-opacity="1" fill-rule="nonzero"/><path fill="#ffa982" d="M 45.953125 157.699219 C 45.953125 157.699219 45.621094 160.085938 44.929688 161.132812 C 44.523438 161.746094 45.628906 162.925781 46.761719 163.09375 C 48.101562 163.292969 47.773438 161.753906 47.773438 161.753906 C 47.773438 161.753906 47.84375 159.203125 47.992188 158.289062 C 48.03125 158.050781 46.316406 157.433594 45.953125 157.699219 " fill-opacity="1" fill-rule="nonzero"/><path fill="#2e2e47" d="M 46.078125 158.367188 C 46.078125 158.367188 46.429688 159.664062 47.453125 160.023438 C 47.59375 160.074219 47.722656 160.113281 47.839844 160.148438 C 47.867188 159.613281 47.902344 159.046875 47.949219 158.625 L 46.078125 158.367188 " fill-opacity="1" fill-rule="nonzero"/><path fill="#ffa982" d="M 49.734375 151.917969 C 49.734375 151.917969 50.371094 153.730469 50.5625 154.28125 C 50.757812 154.835938 51 155.285156 51.148438 156.144531 C 51.316406 157.101562 51.898438 159.003906 49.175781 159.421875 C 47.613281 159.664062 46.425781 158.90625 45.886719 158.125 C 45.347656 157.339844 45.324219 156.9375 45.324219 156.9375 C 45.324219 156.9375 45.078125 157.066406 44.675781 156.5 C 44.269531 155.933594 43.851562 155.128906 44.390625 154.910156 C 44.929688 154.6875 44.835938 155.042969 44.957031 154.96875 C 45.078125 154.898438 45.261719 153.238281 45.921875 152.855469 C 46.578125 152.476562 49.109375 151.226562 49.734375 151.917969 " fill-opacity="1" fill-rule="nonzero"/><path fill="#2e2e47" d="M 46.730469 154.574219 C 46.714844 154.574219 46.695312 154.566406 46.683594 154.550781 C 46.664062 154.523438 46.664062 154.484375 46.691406 154.464844 C 47.238281 153.992188 47.890625 153.984375 47.917969 153.984375 C 47.953125 153.984375 47.980469 154.015625 47.980469 154.046875 C 47.980469 154.082031 47.953125 154.109375 47.917969 154.109375 C 47.914062 154.109375 47.285156 154.117188 46.769531 154.558594 C 46.761719 154.566406 46.746094 154.574219 46.730469 154.574219 " fill-opacity="1" fill-rule="nonzero"/><path fill="#f2836d" d="M 47.121094 156.171875 C 47.179688 156.34375 47.496094 156.390625 47.828125 156.273438 C 48.15625 156.15625 48.371094 155.921875 48.3125 155.75 C 48.25 155.574219 47.933594 155.527344 47.605469 155.644531 C 47.277344 155.761719 47.058594 155.996094 47.121094 156.171875 " fill-opacity="1" fill-rule="nonzero"/><path fill="#f2836d" d="M 49.804688 155.378906 C 49.8125 155.5625 50.105469 155.695312 50.453125 155.675781 C 50.800781 155.65625 51.074219 155.492188 51.066406 155.308594 C 51.054688 155.125 50.765625 154.988281 50.414062 155.007812 C 50.066406 155.03125 49.792969 155.195312 49.804688 155.378906 " fill-opacity="1" fill-rule="nonzero"/><path fill="#2e2e47" d="M 44.601562 155.078125 C 44.601562 155.078125 45.042969 155.980469 45.386719 155.949219 C 45.734375 155.917969 45.503906 154.324219 45.507812 154.007812 C 45.511719 153.6875 45.667969 153.285156 45.667969 153.285156 C 45.667969 153.285156 44.023438 153.882812 44.601562 155.078125 " fill-opacity="1" fill-rule="nonzero"/><path fill="#2e2e47" d="M 49.121094 156.261719 C 49.078125 156.261719 49.039062 156.257812 49.011719 156.246094 C 48.976562 156.238281 48.960938 156.203125 48.972656 156.171875 C 48.980469 156.136719 49.015625 156.121094 49.050781 156.128906 C 49.152344 156.164062 49.484375 156.09375 49.585938 155.933594 C 49.644531 155.84375 49.621094 155.746094 49.519531 155.632812 C 49.207031 155.285156 48.957031 154.394531 49.132812 153.988281 C 49.210938 153.808594 49.441406 153.699219 49.828125 153.652344 C 50.101562 153.625 50.351562 153.640625 50.363281 153.640625 C 50.398438 153.640625 50.421875 153.671875 50.421875 153.703125 C 50.417969 153.738281 50.386719 153.765625 50.355469 153.761719 C 50.085938 153.746094 49.363281 153.761719 49.246094 154.035156 C 49.089844 154.390625 49.332031 155.238281 49.609375 155.550781 C 49.796875 155.757812 49.742188 155.921875 49.691406 156 C 49.578125 156.167969 49.304688 156.261719 49.121094 156.261719 " fill-opacity="1" fill-rule="nonzero"/><path fill="#2e2e47" d="M 50.535156 151.210938 C 50.707031 149.601562 48.894531 148.035156 47.246094 149.023438 C 46.820312 149.28125 45.894531 149.414062 44.101562 151.035156 C 43.332031 151.730469 43.65625 154.007812 44.640625 154.046875 C 45.628906 154.085938 47.234375 152.980469 47.5625 152.960938 C 47.894531 152.941406 50.367188 152.761719 50.535156 151.210938 " fill-opacity="1" fill-rule="nonzero"/><path fill="#2e2e47" d="M 50.097656 152.054688 C 50.050781 152.058594 50.007812 152.039062 49.980469 152 C 49.9375 151.941406 49.949219 151.859375 50.007812 151.816406 C 50.089844 151.757812 50.785156 151.199219 50.367188 149.886719 C 50.078125 148.980469 49.054688 148.71875 49.042969 148.714844 C 48.976562 148.699219 48.929688 148.628906 48.949219 148.558594 C 48.964844 148.488281 49.035156 148.445312 49.105469 148.460938 C 49.152344 148.472656 50.28125 148.757812 50.613281 149.804688 C 50.972656 150.9375 50.597656 151.710938 50.164062 152.027344 C 50.140625 152.042969 50.117188 152.050781 50.097656 152.054688 " fill-opacity="1" fill-rule="nonzero"/><path fill="#2e2e47" d="M 42.148438 152.804688 C 42.078125 152.804688 42.023438 152.75 42.023438 152.683594 C 42.027344 152.269531 42.273438 151.96875 42.765625 151.785156 C 43.441406 151.539062 43.941406 151.949219 43.964844 151.96875 C 44.015625 152.011719 44.023438 152.089844 43.980469 152.140625 C 43.9375 152.191406 43.859375 152.199219 43.808594 152.15625 C 43.789062 152.140625 43.386719 151.820312 42.847656 152.019531 C 42.269531 152.230469 42.269531 152.570312 42.269531 152.683594 C 42.269531 152.75 42.214844 152.804688 42.148438 152.804688 " fill-opacity="1" fill-rule="nonzero"/><path fill="#2e2e47" d="M 47.011719 154.988281 C 46.996094 154.988281 46.980469 154.984375 46.96875 154.972656 C 46.945312 154.945312 46.945312 154.910156 46.96875 154.886719 C 47.46875 154.398438 47.996094 154.53125 48.019531 154.535156 C 48.050781 154.542969 48.070312 154.578125 48.0625 154.613281 C 48.054688 154.644531 48.019531 154.664062 47.988281 154.65625 C 47.96875 154.648438 47.5 154.535156 47.054688 154.972656 C 47.042969 154.984375 47.027344 154.988281 47.011719 154.988281 " fill-opacity="1" fill-rule="nonzero"/><path fill="#2e2e47" d="M 47.425781 154.8125 C 47.425781 154.8125 47.363281 155.195312 47.726562 155.199219 C 48.085938 155.199219 47.941406 154.734375 47.886719 154.65625 C 47.796875 154.53125 47.503906 154.59375 47.425781 154.8125 " fill-opacity="1" fill-rule="nonzero"/><path fill="#2e2e47" d="M 49.597656 154.417969 C 49.578125 154.417969 49.558594 154.410156 49.546875 154.390625 C 49.527344 154.359375 49.539062 154.324219 49.566406 154.304688 C 50.144531 153.957031 50.433594 154.222656 50.445312 154.234375 C 50.46875 154.257812 50.46875 154.296875 50.445312 154.324219 C 50.421875 154.347656 50.382812 154.347656 50.359375 154.324219 C 50.347656 154.316406 50.121094 154.113281 49.628906 154.410156 C 49.621094 154.417969 49.609375 154.417969 49.597656 154.417969 " fill-opacity="1" fill-rule="nonzero"/><path fill="#2e2e47" d="M 49.902344 154.300781 C 49.902344 154.300781 49.730469 154.648438 50.027344 154.738281 C 50.328125 154.824219 50.40625 154.292969 50.332031 154.261719 C 50.257812 154.226562 50.074219 154.09375 49.902344 154.300781 " fill-opacity="1" fill-rule="nonzero"/><path fill="#2e2e47" d="M 48.578125 157.417969 C 48.578125 157.417969 49.113281 156.507812 49.769531 156.617188 C 50.429688 156.726562 50.054688 157.328125 49.929688 157.402344 C 49.636719 157.574219 48.578125 157.417969 48.578125 157.417969 " fill-opacity="1" fill-rule="nonzero"/><path fill="#ffffff" d="M 50.019531 157.019531 C 50.101562 156.964844 50.074219 156.820312 50.046875 156.730469 C 49.988281 156.679688 49.898438 156.636719 49.769531 156.617188 C 49.355469 156.550781 48.988281 156.886719 48.773438 157.144531 C 49.191406 157.175781 49.914062 157.09375 50.019531 157.019531 " fill-opacity="1" fill-rule="nonzero"/><g clip-path="url(#9ce9bed8e1)"><path fill="#ffea8f" d="M 64.117188 141.378906 C 63.441406 141.421875 62.851562 142.148438 62.835938 142.949219 C 62.808594 144.277344 62.664062 146.332031 62.125 148.1875 C 61.609375 149.945312 61.234375 151.09375 61.007812 151.753906 C 60.867188 152.15625 61.003906 152.570312 61.316406 152.695312 L 62.15625 153.027344 C 62.46875 153.152344 62.847656 152.949219 63.019531 152.5625 C 63.828125 150.78125 65.929688 145.898438 66.238281 142.695312 C 66.304688 141.992188 65.914062 141.425781 65.335938 141.378906 C 65.019531 141.355469 64.617188 141.347656 64.117188 141.378906 " fill-opacity="1" fill-rule="nonzero"/></g><path fill="#ffea8f" d="M 61.6875 153.671875 L 61.015625 153.402344 C 60.691406 153.273438 60.296875 153.488281 60.117188 153.890625 L 59.980469 154.199219 C 59.785156 154.632812 59.917969 155.113281 60.265625 155.253906 L 60.929688 155.519531 C 61.246094 155.644531 61.632812 155.445312 61.816406 155.054688 L 61.960938 154.75 C 62.171875 154.3125 62.042969 153.8125 61.6875 153.671875 " fill-opacity="1" fill-rule="nonzero"/><path fill="#ffea8f" d="M 32.058594 146.785156 C 31.65625 147.195312 31.683594 147.984375 32.117188 148.5 C 32.835938 149.355469 33.886719 150.734375 34.574219 152.214844 C 35.222656 153.613281 35.625 154.550781 35.84375 155.097656 C 35.980469 155.429688 36.296875 155.613281 36.5625 155.515625 L 37.28125 155.257812 C 37.546875 155.164062 37.671875 154.824219 37.570312 154.480469 C 37.089844 152.898438 35.710938 148.632812 34.128906 146.433594 C 33.78125 145.949219 33.222656 145.808594 32.832031 146.105469 C 32.617188 146.269531 32.355469 146.488281 32.058594 146.785156 " fill-opacity="1" fill-rule="nonzero"/><path fill="#ffea8f" d="M 37.339844 155.929688 L 36.765625 156.136719 C 36.488281 156.234375 36.355469 156.589844 36.46875 156.949219 L 36.550781 157.21875 C 36.671875 157.601562 37.019531 157.832031 37.320312 157.726562 L 37.886719 157.519531 C 38.15625 157.421875 38.289062 157.082031 38.191406 156.734375 L 38.113281 156.457031 C 38.003906 156.0625 37.644531 155.820312 37.339844 155.929688 " fill-opacity="1" fill-rule="nonzero"/><path fill="#ffea8f" d="M 28.351562 154.519531 C 28.179688 154.910156 28.378906 155.371094 28.785156 155.515625 C 29.453125 155.753906 30.460938 156.179688 31.253906 156.800781 C 32.003906 157.386719 32.484375 157.796875 32.753906 158.035156 C 32.917969 158.183594 33.167969 158.175781 33.324219 158.019531 L 33.734375 157.597656 C 33.886719 157.445312 33.890625 157.195312 33.746094 157.03125 C 33.066406 156.269531 31.175781 154.253906 29.628906 153.539062 C 29.289062 153.382812 28.890625 153.507812 28.699219 153.828125 C 28.597656 154.007812 28.476562 154.234375 28.351562 154.519531 " fill-opacity="1" fill-rule="nonzero"/><path fill="#ffea8f" d="M 33.925781 157.972656 L 33.597656 158.308594 C 33.4375 158.472656 33.433594 158.734375 33.589844 158.902344 L 33.707031 159.03125 C 33.875 159.214844 34.15625 159.222656 34.328125 159.046875 L 34.652344 158.714844 C 34.808594 158.554688 34.816406 158.304688 34.671875 158.132812 L 34.558594 158 C 34.394531 157.808594 34.101562 157.792969 33.925781 157.972656 " fill-opacity="1" fill-rule="nonzero"/><path fill="#2e2e47" d="M 30.363281 194.269531 C 30.351562 194.269531 30.34375 194.265625 30.332031 194.261719 C 30.304688 194.242188 30.292969 194.207031 30.3125 194.175781 C 30.359375 194.09375 35.152344 185.851562 35.332031 184.585938 C 35.515625 183.273438 37.179688 180.234375 37.585938 179.578125 C 38.105469 178.746094 38.777344 177.300781 38.972656 175.976562 C 39.1875 174.542969 41.554688 166.421875 41.578125 166.339844 C 41.585938 166.308594 41.621094 166.289062 41.652344 166.300781 C 41.6875 166.308594 41.703125 166.34375 41.695312 166.375 C 41.671875 166.457031 39.304688 174.570312 39.09375 175.992188 C 38.835938 177.726562 37.878906 179.335938 37.691406 179.640625 C 37.285156 180.296875 35.636719 183.308594 35.453125 184.605469 C 35.269531 185.894531 30.613281 193.898438 30.417969 194.238281 C 30.40625 194.257812 30.382812 194.269531 30.363281 194.269531 " fill-opacity="1" fill-rule="nonzero"/><path fill="#2e2e47" d="M 44.425781 198.570312 C 39.464844 198.570312 31.371094 196.457031 31.285156 196.433594 C 31.253906 196.425781 31.230469 196.390625 31.242188 196.359375 C 31.25 196.324219 31.28125 196.304688 31.316406 196.316406 C 31.402344 196.339844 40.136719 198.617188 45 198.433594 C 49.863281 198.253906 51.652344 197.808594 51.671875 197.804688 C 51.703125 197.796875 51.738281 197.816406 51.746094 197.847656 C 51.753906 197.878906 51.734375 197.914062 51.699219 197.921875 C 51.683594 197.925781 49.882812 198.375 45.003906 198.558594 C 44.816406 198.566406 44.625 198.570312 44.425781 198.570312 " fill-opacity="1" fill-rule="nonzero"/><path fill="#2e2e47" d="M 50.808594 190.746094 C 50.773438 190.746094 50.746094 190.71875 50.746094 190.683594 C 50.746094 190.476562 52.398438 185.117188 52.585938 184.507812 C 52.59375 184.476562 52.628906 184.457031 52.660156 184.46875 C 52.695312 184.476562 52.710938 184.511719 52.703125 184.542969 C 51.96875 186.917969 50.878906 190.511719 50.871094 190.6875 C 50.867188 190.71875 50.839844 190.746094 50.808594 190.746094 " fill-opacity="1" fill-rule="nonzero"/><path fill="#2e2e47" d="M 60.640625 180.851562 Z M 60.625 180.96875 C 60.613281 180.96875 60.597656 180.96875 60.585938 180.960938 C 60.492188 180.921875 60.292969 180.832031 61.09375 176.722656 C 61.484375 174.714844 61.929688 172.703125 61.933594 172.683594 C 61.941406 172.648438 61.976562 172.628906 62.007812 172.636719 C 62.042969 172.644531 62.0625 172.675781 62.054688 172.710938 C 61.398438 175.671875 60.445312 180.4375 60.632812 180.839844 C 60.640625 180.828125 60.660156 180.808594 60.6875 180.773438 C 61.464844 179.636719 61.929688 174.492188 61.933594 174.441406 C 61.9375 174.40625 61.96875 174.382812 62 174.386719 C 62.035156 174.386719 62.058594 174.417969 62.054688 174.453125 C 62.054688 174.464844 61.9375 175.769531 61.722656 177.199219 C 61.4375 179.125 61.121094 180.351562 60.785156 180.84375 C 60.761719 180.878906 60.699219 180.96875 60.625 180.96875 " fill-opacity="1" fill-rule="nonzero"/><path fill="#2e2e47" d="M 57.980469 176.863281 C 57.980469 176.863281 57.980469 176.863281 57.976562 176.863281 C 57.945312 176.863281 57.917969 176.832031 57.921875 176.800781 C 58.042969 174.269531 60.636719 171.570312 60.660156 171.542969 C 60.683594 171.519531 60.722656 171.519531 60.75 171.542969 C 60.773438 171.566406 60.773438 171.605469 60.75 171.628906 C 60.722656 171.65625 58.164062 174.324219 58.042969 176.804688 C 58.039062 176.839844 58.015625 176.863281 57.980469 176.863281 " fill-opacity="1" fill-rule="nonzero"/><g mask="url(#2dd881a767)"><g transform="matrix(1, 0, 0, 1, 434, 68)"><g clip-path="url(#a9f2dffd6f)"><g clip-path="url(#501f3387b0)"><path fill="#586b4d" d="M 35.285156 15.039062 L 18.335938 37.324219 C 17.675781 38.195312 16.433594 38.359375 15.574219 37.695312 L 1.835938 27.0625 C 0.976562 26.394531 0.8125 25.140625 1.472656 24.273438 L 18.417969 1.988281 C 18.773438 1.523438 19.253906 1.261719 19.828125 1.214844 L 29.164062 0.476562 C 30.359375 0.382812 31.449219 0.476562 32.402344 1.214844 C 33.355469 1.953125 33.726562 2.988281 33.949219 4.179688 L 34.539062 7.378906 C 35.078125 7.335938 35.644531 7.265625 36.222656 7.167969 C 36.5 7.121094 36.777344 7.066406 37.046875 7.007812 C 39.203125 6.554688 41.09375 5.804688 42.402344 4.96875 C 43.535156 4.246094 44.1875 3.519531 44.09375 2.960938 L 44.089844 2.941406 C 43.988281 2.457031 43.265625 2.085938 42.15625 1.871094 C 40.839844 1.613281 39.0625 1.628906 37.109375 1.960938 C 36.832031 2.007812 36.558594 2.0625 36.285156 2.117188 C 35.824219 2.214844 35.378906 2.328125 34.945312 2.449219 C 34.777344 1.988281 34.5625 1.558594 34.289062 1.160156 C 34.835938 1 35.40625 0.855469 35.996094 0.730469 C 36.296875 0.664062 36.59375 0.609375 36.878906 0.558594 C 38.996094 0.199219 40.949219 0.1875 42.421875 0.476562 C 44.105469 0.804688 45.238281 1.546875 45.46875 2.652344 C 45.472656 2.683594 45.476562 2.707031 45.480469 2.726562 C 45.679688 3.90625 44.777344 5.132812 43.15625 6.167969 C 41.71875 7.089844 39.664062 7.90625 37.335938 8.398438 C 37.035156 8.464844 36.742188 8.519531 36.453125 8.566406 C 34.335938 8.929688 32.382812 8.941406 30.910156 8.652344 C 29.230469 8.324219 28.09375 7.582031 27.867188 6.476562 C 27.859375 6.445312 27.855469 6.421875 27.851562 6.402344 C 27.742188 5.746094 27.972656 5.078125 28.472656 4.4375 C 27.949219 4.457031 27.4375 4.707031 27.09375 5.160156 C 26.601562 5.808594 26.597656 6.683594 27.03125 7.324219 C 27.660156 8.730469 29.253906 9.417969 30.710938 9.703125 C 32.066406 9.964844 33.558594 9.972656 34.992188 9.839844 L 35.660156 13.464844 C 35.765625 14.039062 35.636719 14.574219 35.285156 15.039062 Z M 30.234375 7.003906 C 30.523438 6.324219 30.375 5.519531 29.851562 4.984375 C 29.40625 5.417969 29.183594 5.824219 29.238281 6.167969 L 29.242188 6.1875 C 29.3125 6.515625 29.667969 6.792969 30.234375 7.003906 Z M 28.742188 11.535156 L 26.878906 13.988281 L 21.347656 9.707031 C 21.035156 9.46875 20.59375 9.527344 20.359375 9.839844 C 20.125 10.152344 20.183594 10.597656 20.492188 10.835938 L 26.582031 15.546875 C 26.890625 15.785156 27.332031 15.726562 27.570312 15.414062 L 29.863281 12.398438 C 30.097656 12.085938 30.039062 11.640625 29.730469 11.402344 C 29.421875 11.164062 28.980469 11.222656 28.742188 11.535156 Z M 23.238281 20.417969 L 22.140625 18.820312 L 23.605469 16.894531 L 25.421875 17.550781 C 25.789062 17.683594 26.191406 17.488281 26.324219 17.121094 C 26.453125 16.75 26.261719 16.34375 25.894531 16.210938 L 18.304688 13.46875 L 18.304688 13.472656 C 18.101562 13.398438 17.863281 13.421875 17.667969 13.554688 C 17.351562 13.777344 17.269531 14.21875 17.492188 14.542969 L 22.082031 21.226562 C 22.304688 21.546875 22.742188 21.628906 23.0625 21.40625 C 23.378906 21.183594 23.460938 20.742188 23.238281 20.417969 Z M 19.898438 15.554688 L 21.300781 17.59375 L 22.214844 16.390625 Z M 20.746094 22.054688 L 18.882812 24.507812 L 16.953125 23.015625 L 18.148438 21.441406 C 18.386719 21.128906 18.328125 20.683594 18.019531 20.445312 C 17.710938 20.207031 17.265625 20.265625 17.03125 20.578125 L 15.835938 22.152344 L 13.90625 20.660156 L 15.773438 18.203125 C 16.007812 17.894531 15.949219 17.449219 15.640625 17.210938 C 15.332031 16.972656 14.890625 17.03125 14.65625 17.34375 L 12.363281 20.359375 C 12.125 20.671875 12.183594 21.117188 12.492188 21.355469 L 18.585938 26.066406 C 18.894531 26.304688 19.335938 26.246094 19.570312 25.933594 L 21.863281 22.917969 C 22.101562 22.605469 22.042969 22.160156 21.730469 21.921875 C 21.421875 21.683594 20.980469 21.742188 20.746094 22.054688 Z M 8.546875 25.375 C 8.3125 25.6875 8.371094 26.132812 8.679688 26.371094 L 14.769531 31.082031 C 15.082031 31.320312 15.523438 31.261719 15.757812 30.949219 L 16.90625 29.441406 C 17.335938 28.871094 17.5 28.175781 17.414062 27.511719 C 17.328125 26.851562 16.988281 26.21875 16.425781 25.78125 L 13.324219 23.382812 C 12.757812 22.945312 12.070312 22.78125 11.414062 22.871094 C 10.753906 22.957031 10.128906 23.296875 9.695312 23.867188 Z M 10.8125 24.730469 L 10.09375 25.675781 L 15.070312 29.523438 L 15.785156 28.578125 C 15.984375 28.320312 16.058594 28 16.019531 27.695312 C 15.980469 27.394531 15.828125 27.109375 15.570312 26.910156 L 12.46875 24.511719 C 12.210938 24.3125 11.894531 24.234375 11.59375 24.277344 C 11.296875 24.316406 11.011719 24.46875 10.8125 24.730469 Z M 10.8125 24.730469 " fill-opacity="1" fill-rule="evenodd"/></g></g></g></g></svg>