<svg xmlns="http://www.w3.org/2000/svg" xmlns:xlink="http://www.w3.org/1999/xlink" width="667" zoomAndPan="magnify" viewBox="0 0 500.25 250.499992" height="334" preserveAspectRatio="xMidYMid meet" version="1.0"><defs><clipPath id="976d9989bb"><path d="M 0.125 10 L 499.378906 10 L 499.378906 250 L 0.125 250 Z M 0.125 10 " clip-rule="nonzero"/></clipPath><clipPath id="ba3d5b9407"><path d="M 374.007812 78.078125 L 499.378906 78.078125 L 499.378906 161.910156 L 374.007812 161.910156 Z M 374.007812 78.078125 " clip-rule="nonzero"/></clipPath><clipPath id="337167aaa0"><path d="M 411 46.464844 L 458 46.464844 L 458 146.765625 L 411 146.765625 Z M 411 46.464844 " clip-rule="nonzero"/></clipPath><clipPath id="c8b57f54bb"><path d="M 424 67 L 445 67 L 445 146.765625 L 424 146.765625 Z M 424 67 " clip-rule="nonzero"/></clipPath><clipPath id="ded1f933cb"><path d="M 411 46.464844 L 458 46.464844 L 458 126 L 411 126 Z M 411 46.464844 " clip-rule="nonzero"/></clipPath><clipPath id="f918f5bf7e"><path d="M 359.457031 125 L 445.535156 125 L 445.535156 194.613281 L 359.457031 194.613281 Z M 359.457031 125 " clip-rule="nonzero"/></clipPath><clipPath id="0798cb0203"><path d="M 328 135 L 499.378906 135 L 499.378906 224.957031 L 328 224.957031 Z M 328 135 " clip-rule="nonzero"/></clipPath><clipPath id="daa9a9e5ac"><path d="M 443 178 L 499.378906 178 L 499.378906 224.957031 L 443 224.957031 Z M 443 178 " clip-rule="nonzero"/></clipPath><clipPath id="045fa289e5"><path d="M 328 134.386719 L 436 134.386719 L 436 224.957031 L 328 224.957031 Z M 328 134.386719 " clip-rule="nonzero"/></clipPath></defs><g clip-path="url(#976d9989bb)"><path fill="#dbe5f4" d="M 0.285156 10.222656 C 0.285156 10.222656 28.652344 28.90625 17.402344 58.441406 C 17.402344 58.441406 24.25 56.890625 28.980469 64.886719 C 28.980469 64.886719 38.109375 73.125 30.121094 82.996094 C 30.121094 82.996094 32.976562 81.285156 37.949219 85.851562 C 37.949219 85.851562 49.117188 92.867188 41.535156 102.984375 C 41.535156 102.984375 52.378906 95.96875 66.644531 101.433594 C 66.644531 101.433594 79.199219 107.308594 80.503906 119.300781 C 80.503906 119.300781 87.109375 120.445312 92.082031 129.582031 C 97.054688 138.71875 96.402344 155.28125 73.65625 172.578125 C 73.65625 172.578125 86.046875 173.476562 90.941406 184.246094 C 95.832031 195.09375 89.390625 205.210938 87.269531 207.496094 C 87.269531 207.496094 93.546875 201.378906 106.265625 206.027344 C 118.984375 210.761719 121.347656 223.324219 121.347656 223.324219 C 121.347656 223.324219 124.203125 211.496094 134.882812 211.65625 C 145.5625 211.820312 147.761719 219.816406 147.761719 219.816406 C 147.761719 219.816406 145.398438 176.820312 187.792969 160.015625 C 230.183594 143.207031 254.316406 174.046875 254.316406 174.046875 C 254.316406 174.046875 260.429688 170.046875 267.847656 176.003906 C 275.269531 181.960938 273.148438 195.015625 269.804688 203.582031 C 269.804688 203.582031 277.386719 186.855469 301.601562 187.753906 C 325.894531 188.648438 338.367188 205.621094 341.386719 213.617188 C 341.386719 213.617188 341.222656 199.011719 357.773438 186.609375 C 374.320312 174.210938 404.894531 176.085938 425.683594 193.871094 C 425.683594 193.871094 418.996094 174.128906 426.660156 159.359375 C 434.40625 144.511719 449.488281 147.125 453.15625 149.734375 C 453.15625 149.734375 445.574219 142.800781 451.28125 133.824219 C 456.988281 124.851562 469.789062 130.234375 469.789062 130.234375 C 469.789062 130.234375 454.214844 112.203125 457.804688 91.074219 C 461.390625 69.945312 481.609375 55.503906 499.054688 55.667969 L 499.054688 260.28125 L 0.285156 260.28125 Z M 499.21875 45.222656 L 499.21875 15.933594 C 499.21875 15.933594 493.835938 23.765625 493.835938 31.191406 C 493.835938 38.613281 499.21875 45.222656 499.21875 45.222656 Z M 499.21875 45.222656 " fill-opacity="1" fill-rule="nonzero"/></g><g clip-path="url(#ba3d5b9407)"><path fill="#dbe5f4" d="M 457.355469 143.492188 C 455.144531 142.207031 454.0625 139.714844 454.464844 137.332031 C 454.636719 138.570312 455.132812 139.710938 455.859375 140.65625 C 456.34375 141.285156 456.9375 141.839844 457.640625 142.292969 C 457.726562 142.347656 457.816406 142.402344 457.90625 142.453125 C 457.992188 142.503906 458.078125 142.550781 458.167969 142.597656 C 460.140625 143.640625 462.402344 143.648438 464.3125 142.796875 C 462.4375 144.460938 459.640625 144.820312 457.355469 143.492188 Z M 408.570312 143.492188 C 410.78125 142.207031 411.863281 139.714844 411.460938 137.332031 C 411.289062 138.570312 410.792969 139.710938 410.066406 140.65625 C 409.582031 141.285156 408.988281 141.839844 408.285156 142.292969 C 408.199219 142.347656 408.109375 142.402344 408.019531 142.453125 C 407.933594 142.503906 407.847656 142.550781 407.757812 142.597656 C 405.785156 143.640625 403.523438 143.648438 401.613281 142.796875 C 403.488281 144.460938 406.285156 144.820312 408.570312 143.492188 Z M 417.65625 116.433594 C 421.039062 118.144531 423.355469 121.65625 423.355469 125.710938 C 423.355469 126.203125 423.324219 126.683594 423.257812 127.15625 C 423.570312 126.164062 423.738281 125.109375 423.738281 124.015625 C 423.738281 120.308594 421.796875 117.050781 418.878906 115.214844 C 426.125 107.742188 431.167969 88.808594 432.964844 78.078125 C 434.757812 88.808594 439.804688 107.742188 447.050781 115.214844 C 444.128906 117.050781 442.1875 120.308594 442.1875 124.015625 C 442.1875 125.109375 442.355469 126.164062 442.667969 127.15625 C 442.605469 126.683594 442.570312 126.203125 442.570312 125.710938 C 442.570312 121.65625 444.890625 118.144531 448.273438 116.433594 C 449.675781 115.722656 451.261719 115.324219 452.941406 115.324219 C 458.867188 115.324219 463.3125 120.175781 463.3125 125.710938 C 463.3125 127.011719 463.074219 128.253906 462.640625 129.398438 C 463.238281 129.5 463.8125 129.679688 464.347656 129.925781 C 463.292969 131.496094 462.675781 133.386719 462.675781 135.417969 C 462.675781 138.285156 463.898438 140.867188 465.851562 142.671875 C 464.578125 141.007812 463.824219 138.933594 463.824219 136.675781 C 463.824219 134.46875 464.546875 132.433594 465.769531 130.789062 C 467.566406 128.378906 470.433594 126.816406 473.664062 126.816406 C 478.199219 126.816406 482.015625 129.890625 483.160156 134.066406 C 483.761719 133.765625 484.441406 133.597656 485.15625 133.597656 C 486.726562 133.597656 488.105469 134.402344 488.90625 135.621094 C 489.703125 136.832031 489.902344 138.410156 489.296875 139.847656 C 488.894531 140.804688 488.199219 141.546875 487.363281 142.019531 C 488.554688 141.628906 489.578125 140.742188 490.101562 139.492188 C 490.5 138.550781 490.550781 137.550781 490.316406 136.632812 C 491.054688 136.410156 491.835938 136.289062 492.648438 136.289062 C 493.6875 136.289062 494.683594 136.488281 495.597656 136.84375 C 495.996094 131.578125 500.390625 127.433594 505.746094 127.433594 C 509.121094 127.433594 512.105469 129.074219 513.960938 131.601562 C 515.199219 133.289062 515.929688 135.375 515.929688 137.632812 C 515.929688 140.089844 515.0625 142.347656 513.613281 144.109375 C 515.640625 142.246094 516.914062 139.566406 516.914062 136.59375 C 516.914062 134.558594 516.316406 132.664062 515.292969 131.074219 C 516.449219 130.699219 517.679688 130.492188 518.957031 130.492188 C 525.484375 130.492188 530.777344 135.792969 530.777344 142.335938 C 530.777344 144.730469 530.066406 146.960938 528.84375 148.824219 C 527.882812 148.386719 526.816406 148.144531 525.695312 148.144531 C 522.367188 148.144531 519.539062 150.277344 518.488281 153.25 C 519.800781 150.921875 522.292969 149.347656 525.148438 149.347656 C 526.171875 149.347656 527.144531 149.550781 528.035156 149.914062 C 530.824219 151.054688 532.792969 153.800781 532.792969 157.003906 C 532.792969 158.871094 532.125 160.582031 531.015625 161.910156 L 334.914062 161.910156 C 333.804688 160.582031 333.136719 158.871094 333.136719 157.003906 C 333.136719 153.800781 335.101562 151.054688 337.890625 149.914062 C 338.78125 149.550781 339.757812 149.347656 340.777344 149.347656 C 343.636719 149.347656 346.128906 150.921875 347.4375 153.25 C 346.390625 150.277344 343.558594 148.144531 340.234375 148.144531 C 339.109375 148.144531 338.042969 148.386719 337.082031 148.824219 C 335.863281 146.960938 335.152344 144.730469 335.152344 142.335938 C 335.152344 135.792969 340.441406 130.492188 346.972656 130.492188 C 348.25 130.492188 349.480469 130.699219 350.632812 131.074219 C 349.609375 132.664062 349.015625 134.558594 349.015625 136.59375 C 349.015625 139.566406 350.285156 142.246094 352.3125 144.109375 C 350.867188 142.347656 350 140.089844 350 137.632812 C 350 135.375 350.730469 133.289062 351.96875 131.601562 C 353.820312 129.074219 356.808594 127.433594 360.179688 127.433594 C 365.539062 127.433594 369.929688 131.578125 370.332031 136.84375 C 371.246094 136.488281 372.238281 136.289062 373.28125 136.289062 C 374.089844 136.289062 374.875 136.410156 375.613281 136.632812 C 375.378906 137.550781 375.429688 138.550781 375.824219 139.492188 C 376.351562 140.742188 377.375 141.628906 378.566406 142.019531 C 377.726562 141.546875 377.035156 140.804688 376.632812 139.847656 C 376.027344 138.410156 376.222656 136.832031 377.019531 135.621094 C 377.824219 134.402344 379.203125 133.597656 380.769531 133.597656 C 381.488281 133.597656 382.167969 133.769531 382.769531 134.066406 C 383.910156 129.890625 387.730469 126.816406 392.261719 126.816406 C 395.496094 126.816406 398.363281 128.378906 400.15625 130.789062 C 401.378906 132.433594 402.105469 134.46875 402.105469 136.675781 C 402.105469 138.933594 401.347656 141.007812 400.078125 142.671875 C 402.027344 140.867188 403.25 138.285156 403.25 135.417969 C 403.25 133.386719 402.636719 131.496094 401.582031 129.925781 C 402.117188 129.679688 402.691406 129.5 403.289062 129.398438 C 402.855469 128.253906 402.617188 127.011719 402.617188 125.710938 C 402.617188 120.175781 407.0625 115.324219 412.988281 115.324219 C 414.667969 115.324219 416.253906 115.722656 417.65625 116.433594 Z M 373.550781 154.011719 C 378.03125 154.011719 381.660156 150.375 381.660156 145.890625 C 381.660156 145.121094 381.550781 144.375 381.351562 143.667969 C 381.375 143.914062 381.386719 144.164062 381.386719 144.414062 C 381.386719 148.898438 377.757812 152.535156 373.277344 152.535156 C 369.570312 152.535156 366.441406 150.039062 365.476562 146.632812 C 365.851562 150.769531 369.324219 154.011719 373.550781 154.011719 Z M 492.375 154.011719 C 487.898438 154.011719 484.265625 150.375 484.265625 145.890625 C 484.265625 145.121094 484.375 144.375 484.574219 143.667969 C 484.550781 143.914062 484.539062 144.164062 484.539062 144.414062 C 484.539062 148.898438 488.167969 152.535156 492.648438 152.535156 C 496.355469 152.535156 499.484375 150.039062 500.449219 146.632812 C 500.074219 150.769531 496.601562 154.011719 492.375 154.011719 Z M 492.375 154.011719 " fill-opacity="1" fill-rule="evenodd"/></g><g clip-path="url(#337167aaa0)"><path fill="#c6e0f9" d="M 451.980469 124.222656 C 451.980469 124.222656 452.382812 112.214844 448.246094 107.648438 C 448.125 107.515625 448.003906 107.394531 447.878906 107.277344 C 447.832031 107.304688 447.785156 107.328125 447.738281 107.351562 C 447.085938 110.574219 446.605469 112.652344 446.605469 112.652344 C 446.007812 112.960938 445.417969 113.246094 444.832031 113.511719 C 444.824219 113.554688 444.820312 113.597656 444.8125 113.636719 C 444.78125 113.800781 444.582031 113.894531 444.433594 113.851562 C 444.371094 113.835938 444.320312 113.800781 444.285156 113.757812 C 443.289062 114.1875 442.3125 114.550781 441.347656 114.851562 C 441.347656 114.886719 441.347656 114.917969 441.347656 114.953125 C 441.347656 115.171875 441.160156 115.269531 440.992188 115.246094 C 447.933594 123.640625 443.84375 133.515625 434.492188 146.765625 L 434.484375 146.71875 L 434.484375 146.765625 C 425.101562 133.46875 421.015625 123.574219 428.058594 115.160156 C 427.910156 115.195312 427.722656 115.101562 427.691406 114.941406 C 427.6875 114.917969 427.683594 114.890625 427.679688 114.867188 C 426.71875 114.570312 425.746094 114.210938 424.753906 113.785156 C 424.722656 113.816406 424.679688 113.839844 424.628906 113.855469 C 424.480469 113.898438 424.285156 113.804688 424.253906 113.640625 C 424.246094 113.609375 424.242188 113.582031 424.234375 113.554688 C 423.621094 113.277344 423.003906 112.976562 422.375 112.652344 C 422.375 112.652344 421.921875 110.695312 421.296875 107.640625 C 421.234375 107.605469 421.175781 107.570312 421.113281 107.53125 C 421.0625 107.503906 421.03125 107.464844 421.007812 107.425781 C 420.933594 107.496094 420.863281 107.570312 420.792969 107.648438 C 416.65625 112.214844 417.058594 124.222656 417.058594 124.222656 C 417.058594 124.222656 408.707031 110.300781 411.675781 102.453125 C 413.460938 97.734375 416.757812 96.054688 419.097656 95.464844 C 418.226562 89.792969 417.554688 83.777344 417.667969 79.210938 C 417.933594 68.511719 420.574219 61.570312 423.75 57.597656 C 424.039062 57.128906 424.773438 56.433594 424.777344 56.429688 C 424.816406 56.390625 424.855469 56.351562 424.894531 56.3125 L 434.660156 46.464844 L 444.265625 56.335938 C 444.289062 56.355469 444.308594 56.378906 444.328125 56.402344 C 444.640625 56.726562 444.941406 57.128906 445.230469 57.597656 C 448.40625 61.570312 451.046875 68.511719 451.3125 79.210938 C 451.425781 83.773438 450.75 89.78125 449.882812 95.449219 C 452.226562 96.023438 455.5625 97.695312 457.363281 102.453125 C 460.332031 110.300781 451.980469 124.222656 451.980469 124.222656 Z M 451.980469 124.222656 " fill-opacity="1" fill-rule="nonzero"/></g><path fill="#f5b95b" d="M 434.492188 125.753906 C 435.578125 123.277344 436.523438 120.945312 437.28125 118.746094 C 441.179688 123.558594 439.210938 129.21875 434.492188 136.90625 L 434.488281 136.878906 L 434.488281 136.90625 C 429.769531 129.21875 427.796875 123.558594 431.699219 118.746094 C 432.457031 120.945312 433.398438 123.273438 434.488281 125.753906 L 434.488281 125.71875 Z M 434.492188 125.753906 " fill-opacity="1" fill-rule="nonzero"/><g clip-path="url(#c8b57f54bb)"><path fill="#fbe2ab" d="M 440.992188 115.25 C 447.933594 123.644531 443.84375 133.519531 434.492188 146.765625 L 434.484375 146.71875 L 434.484375 146.765625 C 425.101562 133.472656 421.015625 123.574219 428.058594 115.160156 C 428.0625 115.160156 428.066406 115.160156 428.070312 115.15625 C 428.148438 115.136719 428.203125 115.089844 428.242188 115.03125 C 429.074219 115.265625 429.898438 115.453125 430.71875 115.589844 C 430.996094 116.613281 431.324219 117.664062 431.699219 118.746094 C 427.796875 123.558594 429.769531 129.21875 434.488281 136.90625 L 434.488281 136.878906 L 434.492188 136.90625 C 439.210938 129.21875 441.179688 123.558594 437.28125 118.746094 C 437.652344 117.664062 437.980469 116.613281 438.261719 115.589844 C 439.082031 115.453125 439.90625 115.265625 440.742188 115.03125 C 440.769531 115.160156 440.878906 115.234375 440.992188 115.25 Z M 434.039062 83.480469 C 438.898438 83.316406 442.261719 80.964844 442.457031 76.027344 C 442.585938 72.832031 439.554688 67.613281 434.957031 67.808594 C 430.324219 68.183594 426.722656 70.535156 426.65625 75.371094 C 426.601562 79.546875 430.242188 83.609375 434.039062 83.480469 Z M 434.039062 83.480469 " fill-opacity="1" fill-rule="nonzero"/></g><g clip-path="url(#ded1f933cb)"><path fill="#f05a39" d="M 451.980469 124.222656 C 451.980469 124.222656 452.382812 112.214844 448.246094 107.648438 C 448.125 107.515625 448.003906 107.394531 447.878906 107.277344 C 447.832031 107.304688 447.785156 107.328125 447.738281 107.351562 C 447.507812 107.472656 447.265625 107.582031 447.027344 107.6875 C 446.445312 107.957031 445.855469 108.203125 445.257812 108.4375 C 445.253906 108.441406 445.253906 108.445312 445.253906 108.449219 C 445.027344 109.269531 445.070312 110.121094 445.0625 110.960938 C 445.054688 111.816406 444.976562 112.667969 444.832031 113.511719 C 444.824219 113.554688 444.820312 113.597656 444.8125 113.636719 C 444.78125 113.804688 444.582031 113.894531 444.433594 113.855469 C 444.371094 113.835938 444.320312 113.800781 444.285156 113.757812 C 444.222656 113.683594 444.199219 113.578125 444.21875 113.472656 C 444.371094 112.605469 444.445312 111.726562 444.449219 110.84375 C 444.449219 110.125 444.4375 109.398438 444.570312 108.691406 C 443.570312 109.054688 442.554688 109.375 441.527344 109.648438 C 441.527344 109.664062 441.53125 109.675781 441.527344 109.691406 C 441.410156 111.410156 441.351562 113.128906 441.347656 114.851562 C 441.347656 114.886719 441.347656 114.917969 441.347656 114.953125 C 441.347656 115.171875 441.160156 115.269531 440.992188 115.25 C 440.878906 115.234375 440.773438 115.160156 440.742188 115.03125 C 440.734375 115.007812 440.730469 114.980469 440.730469 114.953125 C 440.734375 113.238281 440.792969 111.519531 440.90625 109.808594 C 440.367188 109.941406 439.824219 110.058594 439.277344 110.164062 C 439.128906 111.882812 438.78125 113.683594 438.261719 115.589844 C 437.980469 116.613281 437.652344 117.664062 437.28125 118.746094 C 436.523438 120.945312 435.582031 123.273438 434.492188 125.753906 L 434.488281 125.71875 L 434.488281 125.753906 C 433.398438 123.273438 432.457031 120.945312 431.699219 118.746094 C 431.324219 117.664062 430.996094 116.613281 430.71875 115.589844 C 430.230469 113.796875 429.890625 112.097656 429.730469 110.472656 C 429.730469 110.472656 429.726562 110.472656 429.722656 110.472656 C 428.953125 110.351562 428.191406 110.195312 427.433594 110.007812 C 427.71875 111.597656 428 113.1875 428.285156 114.777344 C 428.300781 114.867188 428.285156 114.960938 428.242188 115.03125 C 428.203125 115.089844 428.148438 115.136719 428.070312 115.15625 C 428.066406 115.160156 428.0625 115.160156 428.0625 115.160156 C 427.914062 115.195312 427.722656 115.101562 427.691406 114.941406 C 427.6875 114.917969 427.683594 114.890625 427.679688 114.867188 C 427.378906 113.199219 427.082031 111.527344 426.785156 109.859375 C 426.78125 109.851562 426.78125 109.84375 426.78125 109.835938 C 425.800781 109.566406 424.835938 109.238281 423.894531 108.859375 C 424.234375 110.394531 424.550781 111.929688 424.847656 113.476562 C 424.867188 113.589844 424.835938 113.710938 424.753906 113.785156 C 424.722656 113.816406 424.679688 113.839844 424.632812 113.855469 C 424.480469 113.898438 424.285156 113.804688 424.253906 113.640625 C 424.246094 113.609375 424.242188 113.582031 424.234375 113.554688 C 423.925781 111.929688 423.589844 110.3125 423.230469 108.703125 C 423.21875 108.660156 423.21875 108.621094 423.226562 108.582031 C 422.570312 108.304688 421.914062 108 421.296875 107.640625 C 421.238281 107.605469 421.175781 107.570312 421.113281 107.535156 C 421.066406 107.503906 421.03125 107.464844 421.007812 107.425781 C 420.9375 107.496094 420.867188 107.570312 420.796875 107.648438 C 416.65625 112.214844 417.058594 124.222656 417.058594 124.222656 C 417.058594 124.222656 408.707031 110.300781 411.675781 102.453125 C 413.460938 97.734375 416.757812 96.054688 419.097656 95.464844 C 419.761719 99.761719 420.53125 103.859375 421.164062 106.976562 C 421.238281 106.941406 421.328125 106.941406 421.425781 107 C 421.4375 107.007812 421.449219 107.015625 421.460938 107.019531 C 421.761719 107.1875 422.058594 107.351562 422.367188 107.507812 C 423.027344 107.835938 423.644531 108.105469 424.304688 108.363281 C 426.035156 109.039062 427.839844 109.542969 429.675781 109.839844 C 429.324219 104.882812 430.683594 100.644531 434.488281 96.738281 L 434.488281 96.765625 L 434.492188 96.738281 C 438.214844 100.5625 439.597656 104.703125 439.320312 109.527344 C 441.371094 109.113281 443.390625 108.519531 445.332031 107.746094 C 445.519531 107.671875 445.707031 107.597656 445.890625 107.519531 C 445.929688 107.503906 445.964844 107.488281 446.003906 107.472656 C 446.011719 107.46875 446.082031 107.4375 446.09375 107.433594 C 446.164062 107.402344 446.234375 107.371094 446.304688 107.339844 C 446.5625 107.226562 446.816406 107.113281 447.070312 106.992188 C 447.28125 106.890625 447.496094 106.785156 447.703125 106.671875 C 447.765625 106.636719 447.828125 106.628906 447.882812 106.636719 C 448.5 103.558594 449.246094 99.597656 449.882812 95.449219 C 452.226562 96.023438 455.5625 97.695312 457.363281 102.453125 C 460.332031 110.300781 451.980469 124.222656 451.980469 124.222656 Z M 425.570312 56.695312 C 425.660156 56.722656 425.75 56.753906 425.839844 56.78125 C 425.949219 56.8125 426.0625 56.84375 426.175781 56.875 C 426.246094 56.898438 426.316406 56.917969 426.390625 56.941406 C 426.53125 56.980469 426.675781 57.015625 426.820312 57.054688 C 426.863281 57.066406 426.910156 57.078125 426.953125 57.089844 C 427.121094 57.132812 427.289062 57.171875 427.460938 57.210938 C 427.484375 57.21875 427.503906 57.222656 427.527344 57.226562 C 427.710938 57.269531 427.894531 57.308594 428.078125 57.347656 C 428.089844 57.351562 428.101562 57.355469 428.113281 57.355469 C 428.304688 57.398438 428.5 57.433594 428.699219 57.472656 C 428.703125 57.472656 428.707031 57.472656 428.707031 57.472656 C 430.523438 57.8125 432.476562 57.996094 434.511719 57.996094 C 438.164062 57.996094 441.546875 57.40625 444.328125 56.402344 C 444.308594 56.378906 444.285156 56.355469 444.265625 56.335938 L 434.660156 46.464844 L 424.894531 56.3125 C 424.855469 56.351562 424.816406 56.390625 424.777344 56.429688 C 424.949219 56.492188 425.125 56.550781 425.304688 56.609375 C 425.390625 56.640625 425.480469 56.667969 425.570312 56.695312 Z M 423.257812 75.195312 C 423.351562 68.394531 428.441406 65.085938 434.980469 64.558594 C 441.464844 64.28125 445.75 71.621094 445.566406 76.117188 C 445.289062 83.066406 440.542969 86.371094 433.679688 86.601562 C 428.320312 86.78125 423.179688 81.066406 423.257812 75.195312 Z M 426.65625 75.371094 C 426.601562 79.546875 430.242188 83.609375 434.039062 83.480469 C 438.898438 83.316406 442.261719 80.964844 442.457031 76.027344 C 442.585938 72.832031 439.554688 67.613281 434.957031 67.808594 C 430.324219 68.183594 426.722656 70.535156 426.65625 75.371094 Z M 426.65625 75.371094 " fill-opacity="1" fill-rule="nonzero"/></g><path fill="#ffffff" d="M 433.855469 69.746094 C 435.304688 70.59375 432.902344 72.324219 431.769531 73.871094 C 430.835938 75.144531 430 76.742188 429.3125 76.1875 C 428.582031 75.601562 429.175781 72.621094 430.15625 71.21875 C 431.136719 69.816406 433.152344 69.332031 433.855469 69.746094 Z M 430.890625 78.3125 C 430.738281 77.710938 430.152344 77.246094 429.710938 77.382812 C 429.140625 77.5625 428.835938 78.007812 429 78.722656 C 429.105469 79.183594 429.664062 79.839844 430.199219 79.664062 C 430.734375 79.460938 431.070312 79.011719 430.890625 78.3125 Z M 423.71875 106.617188 C 425.546875 106.953125 425.207031 104.753906 424.9375 103.265625 C 424.429688 100.472656 422.746094 92.953125 421.785156 94.074219 C 420.660156 95.386719 423.085938 106.5 423.71875 106.617188 Z M 422.496094 90.117188 C 422.261719 89.199219 421.515625 88.441406 420.996094 88.609375 C 420.332031 88.828125 420.003906 89.472656 420.265625 90.566406 C 420.433594 91.273438 421.164062 92.308594 421.789062 92.09375 C 422.410156 91.835938 422.773438 91.183594 422.496094 90.117188 Z M 427.363281 56.34375 C 425.792969 58.457031 424.054688 61.308594 424.800781 62.125 C 425.730469 63.140625 426.984375 60.894531 428.566406 59.042969 C 430.765625 56.46875 433.34375 53.480469 432.484375 52.941406 C 431.386719 52.257812 428.929688 54.230469 427.363281 56.34375 Z M 427.363281 56.34375 " fill-opacity="1" fill-rule="nonzero"/><g clip-path="url(#f918f5bf7e)"><path fill="#dbe5f4" d="M 403.484375 150.347656 C 402.242188 148.324219 401.527344 145.945312 401.527344 143.402344 C 401.527344 138.285156 404.414062 133.847656 408.648438 131.613281 C 404.699219 127.535156 399.160156 125 393.027344 125 C 381.023438 125 371.292969 134.714844 371.292969 146.699219 C 371.292969 148.457031 371.503906 150.164062 371.898438 151.800781 C 374 151.070312 376.257812 150.675781 378.609375 150.675781 C 387.730469 150.675781 395.457031 156.636719 398.089844 164.871094 C 394.695312 158.289062 387.824219 153.789062 379.902344 153.789062 C 377.457031 153.789062 375.113281 154.21875 372.941406 155.003906 C 372.945312 155.007812 372.945312 155.011719 372.949219 155.015625 C 365.101562 157.871094 359.457031 165.410156 359.457031 174.203125 C 359.457031 185.425781 368.660156 194.613281 379.902344 194.613281 L 425.09375 194.613281 C 436.335938 194.613281 445.535156 185.425781 445.535156 174.203125 C 445.535156 168.597656 443.242188 163.503906 439.546875 159.804688 C 437.988281 162.886719 434.785156 165 431.089844 165 C 429.054688 165 427.164062 164.359375 425.621094 163.261719 C 426.769531 163.757812 428.039062 164.035156 429.371094 164.035156 C 433.230469 164.035156 436.546875 161.730469 438.023438 158.421875 C 438.546875 157.25 438.839844 155.949219 438.839844 154.578125 C 438.839844 149.359375 434.601562 145.128906 429.375 145.125 C 428.988281 138.117188 423.171875 132.550781 416.054688 132.550781 C 414.0625 132.550781 412.175781 132.984375 410.480469 133.765625 C 405.894531 135.871094 402.710938 140.5 402.710938 145.871094 C 402.710938 147.441406 402.984375 148.949219 403.484375 150.347656 Z M 403.484375 150.347656 " fill-opacity="1" fill-rule="evenodd"/></g><g clip-path="url(#0798cb0203)"><path fill="#dbe5f4" d="M 332.140625 224.269531 L 521.753906 224.269531 C 512.347656 214.585938 488.101562 209.191406 464.03125 211.089844 C 462.753906 201.402344 454.164062 194.050781 444.035156 194.707031 C 450.773438 165.347656 429.585938 137.363281 400.179688 135.207031 C 398.972656 135.121094 397.746094 135.066406 396.515625 135.066406 C 369.046875 135.066406 347.730469 157.488281 347.730469 183.699219 C 347.730469 187.308594 348.128906 191.003906 348.984375 194.707031 C 333.121094 193.679688 323.289062 211.398438 332.140625 224.269531 " fill-opacity="1" fill-rule="nonzero"/></g><path fill="#dbe5f4" d="M 368.523438 190.171875 C 388.746094 190.171875 405.144531 173.792969 405.144531 153.59375 C 405.144531 146.898438 403.34375 140.613281 400.179688 135.207031 C 398.972656 135.121094 397.746094 135.066406 396.515625 135.066406 C 369.046875 135.066406 347.730469 157.488281 347.730469 183.699219 C 353.640625 187.789062 360.804688 190.171875 368.523438 190.171875 " fill-opacity="1" fill-rule="nonzero"/><g clip-path="url(#daa9a9e5ac)"><path fill="#dbe5f4" d="M 521.757812 224.953125 C 521.929688 224.953125 522.101562 224.886719 522.234375 224.757812 C 522.503906 224.496094 522.511719 224.0625 522.246094 223.792969 C 517.625 219.035156 509.203125 215.082031 498.539062 212.667969 C 488.203125 210.324219 476.179688 209.507812 464.617188 210.351562 C 463.035156 200.804688 454.582031 193.824219 444.894531 193.988281 C 445.914062 189.164062 446.214844 184.265625 445.789062 179.417969 C 445.757812 179.042969 445.425781 178.765625 445.046875 178.800781 C 444.671875 178.832031 444.390625 179.164062 444.425781 179.539062 C 444.863281 184.53125 444.507812 189.585938 443.367188 194.554688 C 443.316406 194.765625 443.375 194.988281 443.511719 195.152344 C 443.652344 195.316406 443.859375 195.40625 444.078125 195.390625 C 453.644531 194.773438 462.105469 201.707031 463.355469 211.171875 C 463.402344 211.535156 463.722656 211.792969 464.085938 211.765625 C 488.070312 209.875 512.121094 215.335938 521.265625 224.746094 C 521.398438 224.882812 521.578125 224.953125 521.757812 224.953125 " fill-opacity="1" fill-rule="nonzero"/></g><g clip-path="url(#045fa289e5)"><path fill="#dbe5f4" d="M 332.144531 224.953125 C 332.273438 224.953125 332.410156 224.914062 332.527344 224.832031 C 332.839844 224.617188 332.921875 224.191406 332.703125 223.882812 C 328.730469 218.101562 328.429688 210.699219 331.917969 204.5625 C 335.445312 198.359375 341.8125 194.929688 348.945312 195.390625 C 349.160156 195.40625 349.367188 195.316406 349.507812 195.152344 C 349.648438 194.988281 349.703125 194.765625 349.652344 194.554688 C 346.359375 180.207031 349.730469 165.378906 358.90625 153.871094 C 368.085938 142.359375 381.792969 135.757812 396.511719 135.757812 C 411.132812 135.757812 424.777344 142.285156 433.953125 153.667969 C 434.191406 153.960938 434.621094 154.007812 434.914062 153.769531 C 435.210938 153.535156 435.257812 153.101562 435.019531 152.808594 C 425.582031 141.105469 411.546875 134.390625 396.511719 134.390625 C 381.371094 134.390625 367.277344 141.179688 357.835938 153.019531 C 348.585938 164.621094 345.070312 179.503906 348.128906 193.988281 C 340.921875 193.847656 334.3125 197.578125 330.726562 203.886719 C 326.976562 210.484375 327.300781 218.441406 331.578125 224.65625 C 331.710938 224.847656 331.925781 224.953125 332.144531 224.953125 " fill-opacity="1" fill-rule="nonzero"/></g></svg>